M48
;Layer_Color=9474304
;FILE_FORMAT=4:3
METRIC,TZ
;TYPE=PLATED
T1F00S00C0.400
T2F00S00C0.800
T3F00S00C1.000
T5F00S00C3.000
;TYPE=NON_PLATED
T6F00S00C1.250
%
T01
X22100Y6200
X23000Y12500
Y13600
X29100Y12100
X30600Y12000
X31200Y13400
X34300Y14700
Y18900
X34200Y20000
X30900Y23300
X27950Y25300
X24900Y23400
X25450Y20850
X20200Y19700
X19700Y18700
X9500Y22100
X30900Y9000
X49750Y2850
X44600Y25700
Y29200
X55400Y26400
T02
X42900Y17000
X47780
T03
X10697Y2460
X13237
Y5000
X15777
X18317
Y2460
X15777
X10697Y5000
X2000Y16100
Y18640
Y21180
Y23720
Y26260
X27850Y28750
Y33250
X34350
Y28750
X57400Y21500
Y19000
Y17000
Y14500
T05
X3000Y3000
Y33000
X59500
Y3000
T06
X59500Y15750
Y20250
M30
