G04*
G04 #@! TF.GenerationSoftware,Altium Limited,Altium Designer,18.1.2 (67)*
G04*
G04 Layer_Physical_Order=2*
G04 Layer_Color=16711680*
%FSLAX43Y43*%
%MOMM*%
G71*
G01*
G75*
%ADD11C,0.250*%
%ADD29C,1.300*%
%ADD31R,1.600X1.000*%
%ADD34R,1.000X1.600*%
%ADD37C,0.600*%
%ADD38O,3.150X1.575*%
%ADD39C,1.500*%
%ADD40C,0.710*%
G36*
X57760Y33240D02*
X57737Y33000D01*
X57770Y32656D01*
X57871Y32325D01*
X58000Y32083D01*
Y24467D01*
X57969Y24444D01*
X57802Y24226D01*
X57697Y23972D01*
X57661Y23700D01*
X57697Y23428D01*
X57802Y23174D01*
X57969Y22956D01*
X58000Y22933D01*
Y22448D01*
X57875Y22391D01*
X57662Y22479D01*
X57400Y22514D01*
X57138Y22479D01*
X56893Y22378D01*
X56683Y22217D01*
X56522Y22007D01*
X56421Y21762D01*
X56386Y21500D01*
X56421Y21238D01*
X56522Y20993D01*
X56683Y20783D01*
X56893Y20622D01*
X57138Y20521D01*
X57400Y20486D01*
X57662Y20521D01*
X57875Y20609D01*
X58000Y20552D01*
Y19948D01*
X57875Y19891D01*
X57662Y19979D01*
X57400Y20014D01*
X57138Y19979D01*
X56893Y19878D01*
X56683Y19717D01*
X56522Y19507D01*
X56421Y19262D01*
X56386Y19000D01*
X56421Y18738D01*
X56522Y18493D01*
X56683Y18283D01*
X56893Y18122D01*
X57025Y18068D01*
Y17932D01*
X56893Y17878D01*
X56683Y17717D01*
X56522Y17507D01*
X56421Y17262D01*
X56386Y17000D01*
X56421Y16738D01*
X56522Y16493D01*
X56683Y16283D01*
X56893Y16122D01*
X57138Y16021D01*
X57400Y15986D01*
X57662Y16021D01*
X57875Y16109D01*
X58000Y16052D01*
Y13067D01*
X57969Y13044D01*
X57802Y12826D01*
X57697Y12572D01*
X57661Y12300D01*
X57697Y12028D01*
X57802Y11774D01*
X57969Y11556D01*
X58000Y11533D01*
Y3917D01*
X57871Y3675D01*
X57770Y3344D01*
X57737Y3000D01*
X57760Y2760D01*
X55000Y0D01*
X3000D01*
X0Y3000D01*
Y33000D01*
X3000Y36000D01*
X55000D01*
X57760Y33240D01*
D02*
G37*
%LPC*%
G36*
X3000Y34763D02*
X2656Y34730D01*
X2325Y34629D01*
X2020Y34466D01*
X1753Y34247D01*
X1534Y33980D01*
X1371Y33675D01*
X1270Y33344D01*
X1237Y33000D01*
X1270Y32656D01*
X1371Y32325D01*
X1534Y32020D01*
X1753Y31753D01*
X2020Y31534D01*
X2325Y31371D01*
X2656Y31270D01*
X3000Y31237D01*
X3344Y31270D01*
X3675Y31371D01*
X3980Y31534D01*
X4247Y31753D01*
X4466Y32020D01*
X4629Y32325D01*
X4730Y32656D01*
X4763Y33000D01*
X4730Y33344D01*
X4629Y33675D01*
X4466Y33980D01*
X4247Y34247D01*
X3980Y34466D01*
X3675Y34629D01*
X3344Y34730D01*
X3000Y34763D01*
D02*
G37*
G36*
X34350Y29764D02*
X34088Y29729D01*
X33843Y29628D01*
X33633Y29467D01*
X33472Y29257D01*
X33371Y29012D01*
X33336Y28750D01*
X33371Y28488D01*
X33472Y28243D01*
X33633Y28033D01*
X33843Y27872D01*
X34088Y27771D01*
X34350Y27736D01*
X34612Y27771D01*
X34857Y27872D01*
X35067Y28033D01*
X35228Y28243D01*
X35329Y28488D01*
X35364Y28750D01*
X35329Y29012D01*
X35228Y29257D01*
X35067Y29467D01*
X34857Y29628D01*
X34612Y29729D01*
X34350Y29764D01*
D02*
G37*
G36*
X27850D02*
X27588Y29729D01*
X27343Y29628D01*
X27133Y29467D01*
X26972Y29257D01*
X26897Y29076D01*
X10750D01*
X10625Y29051D01*
X10519Y28981D01*
X5585Y24046D01*
X2953D01*
X2878Y24227D01*
X2717Y24437D01*
X2507Y24598D01*
X2262Y24699D01*
X2000Y24734D01*
X1738Y24699D01*
X1493Y24598D01*
X1283Y24437D01*
X1122Y24227D01*
X1021Y23982D01*
X986Y23720D01*
X1021Y23458D01*
X1122Y23213D01*
X1283Y23003D01*
X1493Y22842D01*
X1738Y22741D01*
X2000Y22706D01*
X2262Y22741D01*
X2507Y22842D01*
X2717Y23003D01*
X2878Y23213D01*
X2953Y23394D01*
X5720D01*
X5845Y23419D01*
X5951Y23489D01*
X10885Y28424D01*
X26897D01*
X26972Y28243D01*
X27133Y28033D01*
X27343Y27872D01*
X27588Y27771D01*
X27850Y27736D01*
X28112Y27771D01*
X28357Y27872D01*
X28567Y28033D01*
X28728Y28243D01*
X28829Y28488D01*
X28864Y28750D01*
X28829Y29012D01*
X28728Y29257D01*
X28567Y29467D01*
X28357Y29628D01*
X28112Y29729D01*
X27850Y29764D01*
D02*
G37*
G36*
X24010Y26310D02*
X23425D01*
Y25425D01*
X24010D01*
Y26310D01*
D02*
G37*
G36*
X23175D02*
X22590D01*
Y25425D01*
X23175D01*
Y26310D01*
D02*
G37*
G36*
X2000Y27274D02*
X1738Y27239D01*
X1493Y27138D01*
X1283Y26977D01*
X1122Y26767D01*
X1021Y26522D01*
X986Y26260D01*
X1021Y25998D01*
X1122Y25753D01*
X1283Y25543D01*
X1493Y25382D01*
X1738Y25281D01*
X2000Y25246D01*
X2262Y25281D01*
X2507Y25382D01*
X2717Y25543D01*
X2878Y25753D01*
X2979Y25998D01*
X3014Y26260D01*
X2979Y26522D01*
X2878Y26767D01*
X2717Y26977D01*
X2507Y27138D01*
X2262Y27239D01*
X2000Y27274D01*
D02*
G37*
G36*
X34810Y26010D02*
X34225D01*
Y25125D01*
X34810D01*
Y26010D01*
D02*
G37*
G36*
X33975D02*
X33390D01*
Y25125D01*
X33975D01*
Y26010D01*
D02*
G37*
G36*
X27010Y26310D02*
X25590D01*
Y24290D01*
X27010D01*
Y24974D01*
X27507D01*
X27553Y24903D01*
X27735Y24782D01*
X27950Y24739D01*
X28165Y24782D01*
X28347Y24903D01*
X28468Y25085D01*
X28511Y25300D01*
X28468Y25515D01*
X28347Y25697D01*
X28165Y25818D01*
X27950Y25861D01*
X27735Y25818D01*
X27553Y25697D01*
X27507Y25626D01*
X27010D01*
Y26310D01*
D02*
G37*
G36*
X24010Y25175D02*
X23425D01*
Y24290D01*
X24010D01*
Y25175D01*
D02*
G37*
G36*
X23175D02*
X22590D01*
Y24290D01*
X23175D01*
Y25175D01*
D02*
G37*
G36*
X34810Y24875D02*
X34225D01*
Y23990D01*
X34810D01*
Y24875D01*
D02*
G37*
G36*
X33975D02*
X33390D01*
Y23990D01*
X33975D01*
Y24875D01*
D02*
G37*
G36*
X31810Y26010D02*
X30390D01*
Y23990D01*
X30595D01*
Y23758D01*
X30503Y23697D01*
X30382Y23515D01*
X30339Y23300D01*
X30382Y23085D01*
X30503Y22903D01*
X30685Y22782D01*
X30900Y22739D01*
X31115Y22782D01*
X31297Y22903D01*
X31418Y23085D01*
X31423Y23109D01*
X31457Y23143D01*
X31566Y23307D01*
X31605Y23500D01*
Y23990D01*
X31810D01*
Y26010D01*
D02*
G37*
G36*
X16610Y22410D02*
X15725D01*
Y21825D01*
X16610D01*
Y22410D01*
D02*
G37*
G36*
X19110D02*
X18225D01*
Y21825D01*
X19110D01*
Y22410D01*
D02*
G37*
G36*
X15475D02*
X14590D01*
Y21825D01*
X15475D01*
Y22410D01*
D02*
G37*
G36*
X17975D02*
X17090D01*
Y21825D01*
X17975D01*
Y22410D01*
D02*
G37*
G36*
X30410Y22610D02*
X29825D01*
Y21725D01*
X30410D01*
Y22610D01*
D02*
G37*
G36*
X29575D02*
X28990D01*
Y21725D01*
X29575D01*
Y22610D01*
D02*
G37*
G36*
X19110Y21575D02*
X18225D01*
Y20990D01*
X19110D01*
Y21575D01*
D02*
G37*
G36*
X17975D02*
X17090D01*
Y20990D01*
X17975D01*
Y21575D01*
D02*
G37*
G36*
X16610D02*
X15725D01*
Y20990D01*
X16610D01*
Y21575D01*
D02*
G37*
G36*
X15475D02*
X14590D01*
Y20990D01*
X15475D01*
Y21575D01*
D02*
G37*
G36*
X30410Y21475D02*
X29825D01*
Y20590D01*
X30410D01*
Y21475D01*
D02*
G37*
G36*
X29575D02*
X28990D01*
Y20590D01*
X29575D01*
Y21475D01*
D02*
G37*
G36*
X36910Y20710D02*
X34890D01*
Y20505D01*
X34435D01*
X34415Y20518D01*
X34200Y20561D01*
X33985Y20518D01*
X33803Y20397D01*
X33682Y20215D01*
X33639Y20000D01*
X33682Y19785D01*
X33803Y19603D01*
X33985Y19482D01*
X34200Y19439D01*
X34415Y19482D01*
X34435Y19495D01*
X34890D01*
Y19290D01*
X36910D01*
Y20710D01*
D02*
G37*
G36*
X30410Y20110D02*
X29825D01*
Y19225D01*
X30410D01*
Y20110D01*
D02*
G37*
G36*
X29575D02*
X28990D01*
Y19225D01*
X29575D01*
Y20110D01*
D02*
G37*
G36*
X19110Y19410D02*
X17090D01*
Y19205D01*
X16610D01*
Y19410D01*
X14590D01*
Y17990D01*
X16610D01*
Y18195D01*
X17090D01*
Y17990D01*
X19110D01*
Y18195D01*
X19465D01*
X19485Y18182D01*
X19700Y18139D01*
X19915Y18182D01*
X20097Y18303D01*
X20218Y18485D01*
X20261Y18700D01*
X20218Y18915D01*
X20097Y19097D01*
X19915Y19218D01*
X19700Y19261D01*
X19485Y19218D01*
X19465Y19205D01*
X19110D01*
Y19410D01*
D02*
G37*
G36*
X30410Y18975D02*
X29825D01*
Y18090D01*
X30410D01*
Y18975D01*
D02*
G37*
G36*
X29575D02*
X28990D01*
Y18090D01*
X29575D01*
Y18975D01*
D02*
G37*
G36*
X24900Y23961D02*
X24685Y23918D01*
X24503Y23797D01*
X24382Y23615D01*
X24339Y23400D01*
X24382Y23185D01*
X24503Y23003D01*
X24685Y22882D01*
X24900Y22839D01*
X25115Y22882D01*
X25135Y22895D01*
X25591D01*
X25990Y22496D01*
Y20590D01*
X26100D01*
Y20110D01*
X25990D01*
Y18090D01*
X27410D01*
Y20110D01*
X27109D01*
Y20590D01*
X27410D01*
Y22610D01*
X27106D01*
X27071Y22788D01*
X26962Y22952D01*
X26157Y23757D01*
X25993Y23866D01*
X25800Y23905D01*
X25135D01*
X25115Y23918D01*
X24900Y23961D01*
D02*
G37*
G36*
X36910Y17710D02*
X36025D01*
Y17125D01*
X36910D01*
Y17710D01*
D02*
G37*
G36*
X35775D02*
X34890D01*
Y17125D01*
X35775D01*
Y17710D01*
D02*
G37*
G36*
X36910Y16875D02*
X36025D01*
Y16290D01*
X36910D01*
Y16875D01*
D02*
G37*
G36*
X35775D02*
X34890D01*
Y16290D01*
X35775D01*
Y16875D01*
D02*
G37*
G36*
X47780Y17913D02*
X47544Y17882D01*
X47324Y17791D01*
X47135Y17645D01*
X46989Y17456D01*
X46898Y17236D01*
X46867Y17000D01*
X46898Y16764D01*
X46989Y16544D01*
X47135Y16355D01*
X47324Y16209D01*
X47544Y16118D01*
X47780Y16087D01*
X48016Y16118D01*
X48236Y16209D01*
X48425Y16355D01*
X48571Y16544D01*
X48662Y16764D01*
X48693Y17000D01*
X48662Y17236D01*
X48571Y17456D01*
X48425Y17645D01*
X48236Y17791D01*
X48016Y17882D01*
X47780Y17913D01*
D02*
G37*
G36*
X42900D02*
X42664Y17882D01*
X42444Y17791D01*
X42255Y17645D01*
X42109Y17456D01*
X42018Y17236D01*
X41987Y17000D01*
X42018Y16764D01*
X42109Y16544D01*
X42255Y16355D01*
X42444Y16209D01*
X42664Y16118D01*
X42900Y16087D01*
X43136Y16118D01*
X43356Y16209D01*
X43545Y16355D01*
X43691Y16544D01*
X43782Y16764D01*
X43813Y17000D01*
X43782Y17236D01*
X43691Y17456D01*
X43545Y17645D01*
X43356Y17791D01*
X43136Y17882D01*
X42900Y17913D01*
D02*
G37*
G36*
X25810Y16210D02*
X24925D01*
Y15625D01*
X25810D01*
Y16210D01*
D02*
G37*
G36*
X24675D02*
X23790D01*
Y15625D01*
X24675D01*
Y16210D01*
D02*
G37*
G36*
X36310Y15710D02*
X34890D01*
Y15026D01*
X34743D01*
X34697Y15097D01*
X34515Y15218D01*
X34300Y15261D01*
X34085Y15218D01*
X33903Y15097D01*
X33782Y14915D01*
X33739Y14700D01*
X33782Y14485D01*
X33903Y14303D01*
X34085Y14182D01*
X34300Y14139D01*
X34515Y14182D01*
X34697Y14303D01*
X34743Y14374D01*
X34890D01*
Y13690D01*
X36310D01*
Y15710D01*
D02*
G37*
G36*
X39310D02*
X38725D01*
Y14825D01*
X39310D01*
Y15710D01*
D02*
G37*
G36*
X38475D02*
X37890D01*
Y14825D01*
X38475D01*
Y15710D01*
D02*
G37*
G36*
X25810Y15375D02*
X24925D01*
Y14790D01*
X25810D01*
Y15375D01*
D02*
G37*
G36*
X24675D02*
X23790D01*
Y14790D01*
X24675D01*
Y15375D01*
D02*
G37*
G36*
X39310Y14575D02*
X38725D01*
Y13690D01*
X39310D01*
Y14575D01*
D02*
G37*
G36*
X38475D02*
X37890D01*
Y13690D01*
X38475D01*
Y14575D01*
D02*
G37*
G36*
X2000Y22194D02*
X1738Y22159D01*
X1493Y22058D01*
X1283Y21897D01*
X1122Y21687D01*
X1021Y21442D01*
X986Y21180D01*
X1021Y20918D01*
X1122Y20673D01*
X1283Y20463D01*
X1493Y20302D01*
X1738Y20201D01*
X2000Y20166D01*
X2262Y20201D01*
X2507Y20302D01*
X2717Y20463D01*
X2878Y20673D01*
X2953Y20854D01*
X9285D01*
X16069Y14069D01*
X16175Y13999D01*
X16300Y13974D01*
X27065D01*
X27869Y13169D01*
X27975Y13099D01*
X28100Y13074D01*
X30757D01*
X30803Y13003D01*
X30985Y12882D01*
X31200Y12839D01*
X31415Y12882D01*
X31597Y13003D01*
X31718Y13185D01*
X31761Y13400D01*
X31718Y13615D01*
X31597Y13797D01*
X31415Y13918D01*
X31200Y13961D01*
X30985Y13918D01*
X30803Y13797D01*
X30757Y13726D01*
X28235D01*
X27431Y14531D01*
X27325Y14601D01*
X27200Y14626D01*
X16435D01*
X9651Y21411D01*
X9545Y21481D01*
X9420Y21506D01*
X2953D01*
X2878Y21687D01*
X2717Y21897D01*
X2507Y22058D01*
X2262Y22159D01*
X2000Y22194D01*
D02*
G37*
G36*
Y19654D02*
X1738Y19619D01*
X1493Y19518D01*
X1283Y19357D01*
X1122Y19147D01*
X1021Y18902D01*
X986Y18640D01*
X1021Y18378D01*
X1122Y18133D01*
X1283Y17923D01*
X1493Y17762D01*
X1738Y17661D01*
X2000Y17626D01*
X2262Y17661D01*
X2507Y17762D01*
X2717Y17923D01*
X2878Y18133D01*
X2953Y18314D01*
X9325D01*
X16369Y11269D01*
X16475Y11199D01*
X16600Y11174D01*
X28500D01*
X28625Y11199D01*
X28731Y11269D01*
X29017Y11556D01*
X29100Y11539D01*
X29315Y11582D01*
X29497Y11703D01*
X29618Y11885D01*
X29661Y12100D01*
X29618Y12315D01*
X29497Y12497D01*
X29315Y12618D01*
X29100Y12661D01*
X28885Y12618D01*
X28703Y12497D01*
X28582Y12315D01*
X28539Y12100D01*
X28556Y12017D01*
X28365Y11826D01*
X25810D01*
Y13210D01*
X23790D01*
Y13005D01*
X23235D01*
X23215Y13018D01*
X23000Y13061D01*
X22785Y13018D01*
X22603Y12897D01*
X22482Y12715D01*
X22439Y12500D01*
X22482Y12285D01*
X22603Y12103D01*
X22785Y11982D01*
X22825Y11974D01*
X22939Y11949D01*
X22937Y11928D01*
X22882Y11826D01*
X16735D01*
X9691Y18871D01*
X9585Y18941D01*
X9460Y18966D01*
X2953D01*
X2878Y19147D01*
X2717Y19357D01*
X2507Y19518D01*
X2262Y19619D01*
X2000Y19654D01*
D02*
G37*
G36*
X28610Y8410D02*
X28025D01*
Y7525D01*
X28610D01*
Y8410D01*
D02*
G37*
G36*
X27775D02*
X27190D01*
Y7525D01*
X27775D01*
Y8410D01*
D02*
G37*
G36*
X30900Y9561D02*
X30685Y9518D01*
X30503Y9397D01*
X30382Y9215D01*
X30339Y9000D01*
X30382Y8785D01*
X30395Y8765D01*
Y8410D01*
X30190D01*
Y6390D01*
X31610D01*
Y8410D01*
X31405D01*
Y8765D01*
X31418Y8785D01*
X31461Y9000D01*
X31418Y9215D01*
X31297Y9397D01*
X31115Y9518D01*
X30900Y9561D01*
D02*
G37*
G36*
X28610Y7275D02*
X28025D01*
Y6390D01*
X28610D01*
Y7275D01*
D02*
G37*
G36*
X27775D02*
X27190D01*
Y6390D01*
X27775D01*
Y7275D01*
D02*
G37*
G36*
X18317Y6014D02*
X18054Y5979D01*
X17810Y5878D01*
X17600Y5717D01*
X17439Y5507D01*
X17338Y5262D01*
X17303Y5000D01*
X17338Y4738D01*
X17439Y4493D01*
X17600Y4283D01*
X17810Y4122D01*
X18054Y4021D01*
X18317Y3986D01*
X18579Y4021D01*
X18824Y4122D01*
X19034Y4283D01*
X19195Y4493D01*
X19296Y4738D01*
X19331Y5000D01*
X19296Y5262D01*
X19195Y5507D01*
X19034Y5717D01*
X18824Y5878D01*
X18579Y5979D01*
X18317Y6014D01*
D02*
G37*
G36*
X15777D02*
X15514Y5979D01*
X15270Y5878D01*
X15060Y5717D01*
X14899Y5507D01*
X14798Y5262D01*
X14763Y5000D01*
X14798Y4738D01*
X14899Y4493D01*
X15060Y4283D01*
X15270Y4122D01*
X15514Y4021D01*
X15777Y3986D01*
X16039Y4021D01*
X16284Y4122D01*
X16494Y4283D01*
X16655Y4493D01*
X16756Y4738D01*
X16791Y5000D01*
X16756Y5262D01*
X16655Y5507D01*
X16494Y5717D01*
X16284Y5878D01*
X16039Y5979D01*
X15777Y6014D01*
D02*
G37*
G36*
X13237D02*
X12974Y5979D01*
X12730Y5878D01*
X12520Y5717D01*
X12359Y5507D01*
X12258Y5262D01*
X12223Y5000D01*
X12258Y4738D01*
X12359Y4493D01*
X12520Y4283D01*
X12730Y4122D01*
X12974Y4021D01*
X13237Y3986D01*
X13499Y4021D01*
X13744Y4122D01*
X13954Y4283D01*
X14115Y4493D01*
X14216Y4738D01*
X14251Y5000D01*
X14216Y5262D01*
X14115Y5507D01*
X13954Y5717D01*
X13744Y5878D01*
X13499Y5979D01*
X13237Y6014D01*
D02*
G37*
G36*
X22100Y6761D02*
X21885Y6718D01*
X21703Y6597D01*
X21582Y6415D01*
X21577Y6391D01*
X21273Y6087D01*
X21143Y6000D01*
X18581Y3438D01*
X18579Y3439D01*
X18317Y3474D01*
X18054Y3439D01*
X17810Y3338D01*
X17600Y3177D01*
X17439Y2967D01*
X17338Y2722D01*
X17303Y2460D01*
X17338Y2198D01*
X17439Y1953D01*
X17600Y1743D01*
X17810Y1582D01*
X18054Y1481D01*
X18317Y1446D01*
X18579Y1481D01*
X18824Y1582D01*
X19034Y1743D01*
X19195Y1953D01*
X19296Y2198D01*
X19331Y2460D01*
X19296Y2722D01*
X19295Y2724D01*
X21770Y5199D01*
X21900Y5286D01*
X22291Y5677D01*
X22315Y5682D01*
X22497Y5803D01*
X22618Y5985D01*
X22661Y6200D01*
X22618Y6415D01*
X22497Y6597D01*
X22315Y6718D01*
X22100Y6761D01*
D02*
G37*
G36*
X15777Y3474D02*
X15514Y3439D01*
X15270Y3338D01*
X15060Y3177D01*
X14899Y2967D01*
X14798Y2722D01*
X14763Y2460D01*
X14798Y2198D01*
X14899Y1953D01*
X15060Y1743D01*
X15270Y1582D01*
X15514Y1481D01*
X15777Y1446D01*
X16039Y1481D01*
X16284Y1582D01*
X16494Y1743D01*
X16655Y1953D01*
X16756Y2198D01*
X16791Y2460D01*
X16756Y2722D01*
X16655Y2967D01*
X16494Y3177D01*
X16284Y3338D01*
X16039Y3439D01*
X15777Y3474D01*
D02*
G37*
G36*
X13237D02*
X12974Y3439D01*
X12730Y3338D01*
X12520Y3177D01*
X12359Y2967D01*
X12258Y2722D01*
X12223Y2460D01*
X12258Y2198D01*
X12359Y1953D01*
X12520Y1743D01*
X12730Y1582D01*
X12974Y1481D01*
X13237Y1446D01*
X13499Y1481D01*
X13744Y1582D01*
X13954Y1743D01*
X14115Y1953D01*
X14216Y2198D01*
X14251Y2460D01*
X14216Y2722D01*
X14115Y2967D01*
X13954Y3177D01*
X13744Y3338D01*
X13499Y3439D01*
X13237Y3474D01*
D02*
G37*
G36*
X10697D02*
X10434Y3439D01*
X10190Y3338D01*
X9980Y3177D01*
X9819Y2967D01*
X9718Y2722D01*
X9683Y2460D01*
X9718Y2198D01*
X9819Y1953D01*
X9980Y1743D01*
X10190Y1582D01*
X10434Y1481D01*
X10697Y1446D01*
X10959Y1481D01*
X11204Y1582D01*
X11414Y1743D01*
X11575Y1953D01*
X11676Y2198D01*
X11711Y2460D01*
X11676Y2722D01*
X11575Y2967D01*
X11414Y3177D01*
X11204Y3338D01*
X10959Y3439D01*
X10697Y3474D01*
D02*
G37*
G36*
X3000Y4763D02*
X2656Y4730D01*
X2325Y4629D01*
X2020Y4466D01*
X1753Y4247D01*
X1534Y3980D01*
X1371Y3675D01*
X1270Y3344D01*
X1237Y3000D01*
X1270Y2656D01*
X1371Y2325D01*
X1534Y2020D01*
X1753Y1753D01*
X2020Y1534D01*
X2325Y1371D01*
X2656Y1270D01*
X3000Y1237D01*
X3344Y1270D01*
X3675Y1371D01*
X3980Y1534D01*
X4247Y1753D01*
X4466Y2020D01*
X4629Y2325D01*
X4730Y2656D01*
X4763Y3000D01*
X4730Y3344D01*
X4629Y3675D01*
X4466Y3980D01*
X4247Y4247D01*
X3980Y4466D01*
X3675Y4629D01*
X3344Y4730D01*
X3000Y4763D01*
D02*
G37*
%LPD*%
D11*
X26300Y25300D02*
X27950D01*
X34300Y14700D02*
X35300D01*
X28500Y11500D02*
X29100Y12100D01*
X16600Y11500D02*
X28500D01*
X9460Y18640D02*
X16600Y11500D01*
X28100Y13400D02*
X31200D01*
X27200Y14300D02*
X28100Y13400D01*
X2000Y18640D02*
X9460D01*
X16300Y14300D02*
X27200D01*
X9420Y21180D02*
X16300Y14300D01*
X2000Y21180D02*
X9420D01*
X10750Y28750D02*
X27850D01*
X5720Y23720D02*
X10750Y28750D01*
X2000Y23720D02*
X5720D01*
D29*
X42900Y17000D02*
D03*
X47780D02*
D03*
D31*
X18100Y18700D02*
D03*
Y21700D02*
D03*
X15600Y18700D02*
D03*
Y21700D02*
D03*
X24800Y12500D02*
D03*
Y15500D02*
D03*
X35900Y20000D02*
D03*
Y17000D02*
D03*
D34*
X23300Y25300D02*
D03*
X26300D02*
D03*
X31100Y25000D02*
D03*
X34100D02*
D03*
X26700Y21600D02*
D03*
X29700D02*
D03*
X26700Y19100D02*
D03*
X29700D02*
D03*
X35600Y14700D02*
D03*
X38600D02*
D03*
X30900Y7400D02*
D03*
X27900D02*
D03*
D37*
X15600Y18700D02*
X19700D01*
X26605Y19095D02*
Y22595D01*
X21543Y5643D02*
X22100Y6200D01*
X21500Y5643D02*
X21543D01*
X18317Y2460D02*
X21500Y5643D01*
X25800Y23400D02*
X26605Y22595D01*
X34200Y20000D02*
X35900D01*
X30900Y7600D02*
Y9000D01*
X23000Y12500D02*
X24800D01*
X24900Y23400D02*
X25800D01*
X30900Y23300D02*
X31100Y23500D01*
Y25000D01*
D38*
X59500Y23700D02*
D03*
Y12300D02*
D03*
D39*
X57400Y14500D02*
D03*
Y17000D02*
D03*
Y19000D02*
D03*
Y21500D02*
D03*
X2000Y16100D02*
D03*
Y18640D02*
D03*
Y26260D02*
D03*
Y23720D02*
D03*
Y21180D02*
D03*
X27850Y33250D02*
D03*
Y28750D02*
D03*
X34350Y33250D02*
D03*
Y28750D02*
D03*
X10697Y2460D02*
D03*
X13237D02*
D03*
Y5000D02*
D03*
X18317D02*
D03*
X15777D02*
D03*
X10697D02*
D03*
X15777Y2460D02*
D03*
X18317D02*
D03*
D40*
X19700Y18700D02*
D03*
X30900Y9000D02*
D03*
X27950Y25300D02*
D03*
X49750Y2850D02*
D03*
X9500Y22100D02*
D03*
X22100Y6200D02*
D03*
X34300Y14700D02*
D03*
X30600Y12000D02*
D03*
X34300Y18900D02*
D03*
X23000Y13600D02*
D03*
X20200Y19700D02*
D03*
X25450Y20850D02*
D03*
X29100Y12100D02*
D03*
X31200Y13400D02*
D03*
X34200Y20000D02*
D03*
X23000Y12500D02*
D03*
X24900Y23400D02*
D03*
X30900Y23300D02*
D03*
X44600Y29200D02*
D03*
Y25700D02*
D03*
X55400Y26400D02*
D03*
M02*
