G04*
G04 #@! TF.GenerationSoftware,Altium Limited,Altium Designer,18.1.2 (67)*
G04*
G04 Layer_Color=32896*
%FSLAX43Y43*%
%MOMM*%
G71*
G01*
G75*
%ADD10C,0.200*%
%ADD11C,0.250*%
D10*
X19100Y18000D02*
Y22400D01*
X17100Y18000D02*
Y22400D01*
Y18000D02*
X19100D01*
X17100Y22400D02*
X19100D01*
X22600Y24300D02*
Y26300D01*
X27000Y24300D02*
Y26300D01*
X22600Y24300D02*
X27000D01*
X22600Y26300D02*
X27000D01*
X16600Y18000D02*
Y22400D01*
X14600Y18000D02*
Y22400D01*
Y18000D02*
X16600D01*
X14600Y22400D02*
X16600D01*
X30400Y24000D02*
X34800D01*
X30400Y26000D02*
X34800D01*
X30400Y24000D02*
Y26000D01*
X34800Y24000D02*
Y26000D01*
X26000Y20600D02*
X30400D01*
X26000Y22600D02*
X30400D01*
X26000Y20600D02*
Y22600D01*
X30400Y20600D02*
Y22600D01*
X26000Y18100D02*
X30400D01*
X26000Y20100D02*
X30400D01*
X26000Y18100D02*
Y20100D01*
X30400Y18100D02*
Y20100D01*
X25800Y11800D02*
Y16200D01*
X23800Y11800D02*
Y16200D01*
Y11800D02*
X25800D01*
X23800Y16200D02*
X25800D01*
X34900Y16300D02*
Y20700D01*
X36900Y16300D02*
Y20700D01*
X34900D02*
X36900D01*
X34900Y16300D02*
X36900D01*
X34900Y13700D02*
X39300D01*
X34900Y15700D02*
X39300D01*
X34900Y13700D02*
Y15700D01*
X39300Y13700D02*
Y15700D01*
X27200Y8400D02*
X31600D01*
X27200Y6400D02*
X31600D01*
Y8400D01*
X27200Y6400D02*
Y8400D01*
D11*
X37134Y24933D02*
X37300Y25100D01*
X37633D01*
X37800Y24933D01*
Y24267D01*
X37633Y24100D01*
X37300D01*
X37134Y24267D01*
X36800Y24100D02*
X36467D01*
X36634D01*
Y25100D01*
X36800Y24933D01*
X35967D02*
X35801Y25100D01*
X35467D01*
X35301Y24933D01*
Y24766D01*
X35467Y24600D01*
X35634D01*
X35467D01*
X35301Y24433D01*
Y24267D01*
X35467Y24100D01*
X35801D01*
X35967Y24267D01*
X39300Y12200D02*
Y13200D01*
X38800D01*
X38634Y13033D01*
Y12700D01*
X38800Y12533D01*
X39300D01*
X38967D02*
X38634Y12200D01*
X38300Y13033D02*
X38134Y13200D01*
X37800D01*
X37634Y13033D01*
Y12866D01*
X37800Y12700D01*
X37967D01*
X37800D01*
X37634Y12533D01*
Y12367D01*
X37800Y12200D01*
X38134D01*
X38300Y12367D01*
X32834Y19033D02*
X33000Y19200D01*
X33333D01*
X33500Y19033D01*
Y18367D01*
X33333Y18200D01*
X33000D01*
X32834Y18367D01*
X32500Y18200D02*
X32167D01*
X32334D01*
Y19200D01*
X32500Y19033D01*
X31001Y18200D02*
X31667D01*
X31001Y18866D01*
Y19033D01*
X31167Y19200D01*
X31501D01*
X31667Y19033D01*
X32534Y21533D02*
X32700Y21700D01*
X33033D01*
X33200Y21533D01*
Y20867D01*
X33033Y20700D01*
X32700D01*
X32534Y20867D01*
X32200Y20700D02*
X31867D01*
X32034D01*
Y21700D01*
X32200Y21533D01*
X31367Y20700D02*
X31034D01*
X31201D01*
Y21700D01*
X31367Y21533D01*
X39334Y20533D02*
X39500Y20700D01*
X39833D01*
X40000Y20533D01*
Y19867D01*
X39833Y19700D01*
X39500D01*
X39334Y19867D01*
X39000Y19700D02*
X38667D01*
X38834D01*
Y20700D01*
X39000Y20533D01*
X38167D02*
X38001Y20700D01*
X37667D01*
X37501Y20533D01*
Y19867D01*
X37667Y19700D01*
X38001D01*
X38167Y19867D01*
Y20533D01*
X33334Y7333D02*
X33500Y7500D01*
X33833D01*
X34000Y7333D01*
Y6667D01*
X33833Y6500D01*
X33500D01*
X33334Y6667D01*
X33000D02*
X32834Y6500D01*
X32500D01*
X32334Y6667D01*
Y7333D01*
X32500Y7500D01*
X32834D01*
X33000Y7333D01*
Y7166D01*
X32834Y7000D01*
X32334D01*
X25034Y11033D02*
X25200Y11200D01*
X25533D01*
X25700Y11033D01*
Y10367D01*
X25533Y10200D01*
X25200D01*
X25034Y10367D01*
X24700Y11033D02*
X24534Y11200D01*
X24200D01*
X24034Y11033D01*
Y10866D01*
X24200Y10700D01*
X24034Y10533D01*
Y10367D01*
X24200Y10200D01*
X24534D01*
X24700Y10367D01*
Y10533D01*
X24534Y10700D01*
X24700Y10866D01*
Y11033D01*
X24534Y10700D02*
X24200D01*
X15534Y23833D02*
X15700Y24000D01*
X16033D01*
X16200Y23833D01*
Y23167D01*
X16033Y23000D01*
X15700D01*
X15534Y23167D01*
X15200Y24000D02*
X14534D01*
Y23833D01*
X15200Y23167D01*
Y23000D01*
X18234Y23733D02*
X18400Y23900D01*
X18733D01*
X18900Y23733D01*
Y23067D01*
X18733Y22900D01*
X18400D01*
X18234Y23067D01*
X17234Y23900D02*
X17567Y23733D01*
X17900Y23400D01*
Y23067D01*
X17734Y22900D01*
X17400D01*
X17234Y23067D01*
Y23233D01*
X17400Y23400D01*
X17900D01*
X21334Y25433D02*
X21500Y25600D01*
X21833D01*
X22000Y25433D01*
Y24767D01*
X21833Y24600D01*
X21500D01*
X21334Y24767D01*
X20334Y25600D02*
X21000D01*
Y25100D01*
X20667Y25266D01*
X20500D01*
X20334Y25100D01*
Y24767D01*
X20500Y24600D01*
X20834D01*
X21000Y24767D01*
M02*
