G04*
G04 #@! TF.GenerationSoftware,Altium Limited,Altium Designer,18.1.2 (67)*
G04*
G04 Layer_Color=65535*
%FSLAX43Y43*%
%MOMM*%
G71*
G01*
G75*
%ADD10C,0.200*%
%ADD11C,0.250*%
%ADD12C,0.152*%
%ADD13C,0.300*%
%ADD14C,0.152*%
G36*
X20599Y13259D02*
Y13641D01*
X20345D01*
Y13259D01*
X20599D01*
D02*
G37*
G36*
Y18260D02*
Y18640D01*
X20345D01*
Y18260D01*
X20599D01*
D02*
G37*
G36*
X26640Y22801D02*
Y23055D01*
X26260D01*
Y22801D01*
X26640D01*
D02*
G37*
G36*
X27140Y9599D02*
Y9345D01*
X26760D01*
Y9599D01*
X27140D01*
D02*
G37*
G36*
X33801Y12759D02*
Y13141D01*
X34055D01*
Y12759D01*
X33801D01*
D02*
G37*
G36*
Y17760D02*
Y18140D01*
X34055D01*
Y17760D01*
X33801D01*
D02*
G37*
D10*
X56200Y21500D02*
G03*
X56200Y21500I-100J0D01*
G01*
X48195Y1895D02*
G03*
X48195Y1895I-100J0D01*
G01*
X33104Y31012D02*
G03*
X33104Y31012I-2000J0D01*
G01*
X47400Y24900D02*
X49400D01*
X47400Y20500D02*
X49400D01*
Y24900D01*
X47400Y20500D02*
Y24900D01*
X2635Y17370D02*
X3270Y16735D01*
Y15465D02*
Y16735D01*
X2635Y14830D02*
X3270Y15465D01*
X1365Y14830D02*
X2635D01*
X730Y15465D02*
X1365Y14830D01*
X730Y15465D02*
Y16735D01*
X1365Y17370D01*
X2635Y19910D02*
X3270Y19275D01*
Y18005D02*
Y19275D01*
X2635Y17370D02*
X3270Y18005D01*
X1365Y17370D02*
X2635D01*
X730Y18005D02*
X1365Y17370D01*
X730Y18005D02*
Y19275D01*
X1365Y19910D01*
X2635Y22450D02*
X3270Y21815D01*
Y20545D02*
Y21815D01*
X2635Y19910D02*
X3270Y20545D01*
X1365Y19910D02*
X2635D01*
X730Y20545D02*
X1365Y19910D01*
X730Y20545D02*
Y21815D01*
X1365Y22450D01*
X730Y24990D02*
Y27530D01*
Y24355D02*
X1365Y24990D01*
X730Y23085D02*
Y24355D01*
Y23085D02*
X1365Y22450D01*
X2635D01*
X3270Y23085D01*
Y24355D01*
X2635Y24990D02*
X3270Y24355D01*
X730Y27530D02*
X3270D01*
X730Y24990D02*
X3270D01*
Y27530D01*
X12700Y21150D02*
Y21950D01*
X13700D01*
X12700Y18950D02*
Y19750D01*
Y18950D02*
X13700D01*
X16900Y20900D02*
X18900D01*
X16900Y16500D02*
X18900D01*
Y20900D01*
X16900Y16500D02*
Y20900D01*
X42695Y2145D02*
X47095D01*
X42695Y12445D02*
X47095D01*
X39600Y24900D02*
X41600D01*
X39600Y20500D02*
X41600D01*
Y24900D01*
X39600Y20500D02*
Y24900D01*
X30104Y34012D02*
X32104D01*
X34200Y30456D02*
Y31472D01*
X30104Y28012D02*
X32104D01*
X28104Y30456D02*
Y31472D01*
X12750Y29900D02*
Y31900D01*
X15700Y29900D02*
Y31900D01*
X11300Y29900D02*
Y31900D01*
Y29900D02*
X15700D01*
X11300Y31900D02*
X15700D01*
X16200D02*
X20600D01*
X16200Y29900D02*
X20600D01*
X16200D02*
Y31900D01*
X20600Y29900D02*
Y31900D01*
X9282Y1055D02*
Y6405D01*
Y1055D02*
X19732D01*
Y6405D01*
X9282D02*
X19732D01*
X9307Y6730D02*
Y13730D01*
X19707Y6730D02*
Y13730D01*
X9307Y6730D02*
X19707D01*
X9307Y13730D02*
X19707D01*
X9307Y10230D02*
X19707D01*
X11907Y6730D02*
Y13730D01*
X14507Y6730D02*
Y13730D01*
X17207Y6730D02*
Y13730D01*
X43600Y24900D02*
X45600D01*
X43600Y20500D02*
X45600D01*
Y24900D01*
X43600Y20500D02*
Y24900D01*
X45300Y28200D02*
Y30200D01*
X49700Y28200D02*
Y30200D01*
X45300D02*
X49700D01*
X45300Y28200D02*
X49700D01*
D11*
X33324Y22300D02*
G03*
X33300Y22200I-224J0D01*
G01*
X54605Y24622D02*
G03*
X54605Y24622I-254J0D01*
G01*
X14725Y18650D02*
G03*
X14725Y18650I-125J0D01*
G01*
X34000Y11700D02*
Y10700D01*
X34500D01*
X34666Y10867D01*
Y11533D01*
X34500Y11700D01*
X34000D01*
X35000D02*
Y10700D01*
X35500D01*
X35666Y10867D01*
Y11533D01*
X35500Y11700D01*
X35000D01*
X36666Y10700D02*
X35999D01*
X36666Y11366D01*
Y11533D01*
X36499Y11700D01*
X36166D01*
X35999Y11533D01*
X3866Y6600D02*
X3200D01*
Y5600D01*
X3866D01*
X3200Y6100D02*
X3533D01*
X4866Y6433D02*
X4700Y6600D01*
X4366D01*
X4200Y6433D01*
Y6266D01*
X4366Y6100D01*
X4700D01*
X4866Y5933D01*
Y5767D01*
X4700Y5600D01*
X4366D01*
X4200Y5767D01*
X5199Y5600D02*
Y6600D01*
X5699D01*
X5866Y6433D01*
Y6100D01*
X5699Y5933D01*
X5199D01*
X6199Y6100D02*
X6865D01*
X7199Y6433D02*
X7365Y6600D01*
X7699D01*
X7865Y6433D01*
Y5767D01*
X7699Y5600D01*
X7365D01*
X7199Y5767D01*
Y6433D01*
X8198Y5600D02*
X8532D01*
X8365D01*
Y6600D01*
X8198Y6433D01*
X1366Y13933D02*
X1200Y14100D01*
X867D01*
X700Y13933D01*
Y13766D01*
X867Y13600D01*
X1200D01*
X1366Y13433D01*
Y13267D01*
X1200Y13100D01*
X867D01*
X700Y13267D01*
X1700Y14100D02*
Y13100D01*
X2033Y13433D01*
X2366Y13100D01*
Y14100D01*
X2699D02*
Y13100D01*
X3199D01*
X3366Y13267D01*
Y13933D01*
X3199Y14100D01*
X2699D01*
X3800Y26533D02*
X3967Y26700D01*
X4300D01*
X4466Y26533D01*
Y26366D01*
X4300Y26200D01*
X4133D01*
X4300D01*
X4466Y26033D01*
Y25867D01*
X4300Y25700D01*
X3967D01*
X3800Y25867D01*
X4800Y25700D02*
Y25867D01*
X4966D01*
Y25700D01*
X4800D01*
X5633Y26533D02*
X5799Y26700D01*
X6133D01*
X6299Y26533D01*
Y26366D01*
X6133Y26200D01*
X5966D01*
X6133D01*
X6299Y26033D01*
Y25867D01*
X6133Y25700D01*
X5799D01*
X5633Y25867D01*
X6632Y26700D02*
Y26033D01*
X6966Y25700D01*
X7299Y26033D01*
Y26700D01*
X4566Y21633D02*
X4400Y21800D01*
X4067D01*
X3900Y21633D01*
Y21466D01*
X4067Y21300D01*
X4400D01*
X4566Y21133D01*
Y20967D01*
X4400Y20800D01*
X4067D01*
X3900Y20967D01*
X4900Y21800D02*
Y20800D01*
X5233Y21133D01*
X5566Y20800D01*
Y21800D01*
X5899D02*
Y20800D01*
X6399D01*
X6566Y20967D01*
Y21633D01*
X6399Y21800D01*
X5899D01*
X6899D02*
X7232D01*
X7066D01*
Y20800D01*
X6899D01*
X7232D01*
X8232Y21800D02*
X7899D01*
X7732Y21633D01*
Y20967D01*
X7899Y20800D01*
X8232D01*
X8399Y20967D01*
Y21633D01*
X8232Y21800D01*
X4566Y18933D02*
X4400Y19100D01*
X4067D01*
X3900Y18933D01*
Y18766D01*
X4067Y18600D01*
X4400D01*
X4566Y18433D01*
Y18267D01*
X4400Y18100D01*
X4067D01*
X3900Y18267D01*
X4900Y19100D02*
Y18100D01*
X5233Y18433D01*
X5566Y18100D01*
Y19100D01*
X5899D02*
Y18100D01*
X6399D01*
X6566Y18267D01*
Y18933D01*
X6399Y19100D01*
X5899D01*
X7565Y18933D02*
X7399Y19100D01*
X7066D01*
X6899Y18933D01*
Y18267D01*
X7066Y18100D01*
X7399D01*
X7565Y18267D01*
X7899Y19100D02*
Y18100D01*
X8565D01*
X8898Y19100D02*
Y18100D01*
Y18433D01*
X9565Y19100D01*
X9065Y18600D01*
X9565Y18100D01*
X4000Y23200D02*
Y24200D01*
X4500D01*
X4666Y24033D01*
Y23700D01*
X4500Y23533D01*
X4000D01*
X4333D02*
X4666Y23200D01*
X5666Y24033D02*
X5500Y24200D01*
X5166D01*
X5000Y24033D01*
Y23866D01*
X5166Y23700D01*
X5500D01*
X5666Y23533D01*
Y23367D01*
X5500Y23200D01*
X5166D01*
X5000Y23367D01*
X5999Y24200D02*
X6666D01*
X6333D01*
Y23200D01*
X4466Y16433D02*
X4300Y16600D01*
X3967D01*
X3800Y16433D01*
Y15767D01*
X3967Y15600D01*
X4300D01*
X4466Y15767D01*
Y16100D01*
X4133D01*
X4800Y15600D02*
Y16600D01*
X5466Y15600D01*
Y16600D01*
X5799D02*
Y15600D01*
X6299D01*
X6466Y15767D01*
Y16433D01*
X6299Y16600D01*
X5799D01*
X10207Y7630D02*
Y8296D01*
Y7963D01*
X11207D01*
X10207Y8630D02*
X11207Y9296D01*
X10207D02*
X11207Y8630D01*
X10268Y11289D02*
X10103Y11121D01*
X10106Y10787D01*
X10274Y10622D01*
X10940Y10628D01*
X11105Y10797D01*
X11102Y11130D01*
X10934Y11295D01*
X10601Y11292D01*
X10604Y10959D01*
X11098Y11630D02*
X10098Y11620D01*
X11091Y12296D01*
X10092Y12287D01*
X10089Y12620D02*
X11088Y12629D01*
X11084Y13129D01*
X10916Y13294D01*
X10249Y13288D01*
X10084Y13120D01*
X10089Y12620D01*
X12807Y10821D02*
X12804Y11154D01*
X12806Y10987D01*
X13805Y10997D01*
X13807Y10830D01*
X13804Y11163D01*
X12795Y12154D02*
X12798Y11820D01*
X12966Y11655D01*
X13633Y11661D01*
X13798Y11830D01*
X13795Y12163D01*
X13626Y12328D01*
X12960Y12322D01*
X12795Y12154D01*
X13784Y13329D02*
X13790Y12663D01*
X13117Y13323D01*
X12951Y13321D01*
X12786Y13153D01*
X12789Y12820D01*
X12957Y12655D01*
X12807Y8296D02*
Y7630D01*
X13807D01*
Y8296D01*
X13307Y7630D02*
Y7963D01*
X13807Y8630D02*
X12807D01*
X13807Y9296D01*
X12807D01*
X15407Y10821D02*
X15404Y11154D01*
X15406Y10987D01*
X16405Y10997D01*
X16407Y10830D01*
X16404Y11163D01*
X15395Y12154D02*
X15398Y11820D01*
X15566Y11655D01*
X16233Y11661D01*
X16398Y11830D01*
X16395Y12163D01*
X16226Y12328D01*
X15560Y12322D01*
X15395Y12154D01*
X15557Y12655D02*
X15389Y12820D01*
X15386Y13153D01*
X15551Y13321D01*
X16217Y13328D01*
X16385Y13162D01*
X16388Y12829D01*
X16223Y12661D01*
X15557Y12655D01*
X16407Y7230D02*
X15407D01*
Y7730D01*
X15574Y7896D01*
X15907D01*
X16074Y7730D01*
Y7230D01*
Y7563D02*
X16407Y7896D01*
X15574Y8896D02*
X15407Y8730D01*
Y8396D01*
X15574Y8230D01*
X15740D01*
X15907Y8396D01*
Y8730D01*
X16074Y8896D01*
X16240D01*
X16407Y8730D01*
Y8396D01*
X16240Y8230D01*
X15407Y9229D02*
Y9896D01*
Y9563D01*
X16407D01*
X19007Y11230D02*
X18007Y11221D01*
X18003Y11721D01*
X18168Y11889D01*
X18501Y11892D01*
X18669Y11727D01*
X18674Y11227D01*
X18671Y11560D02*
X19001Y11896D01*
X17998Y12220D02*
X18991Y12896D01*
X17992Y12887D02*
X18998Y12230D01*
X18007Y7230D02*
X18674D01*
X19007Y7563D01*
X18674Y7896D01*
X18007D01*
X18174Y8896D02*
X18007Y8730D01*
Y8396D01*
X18174Y8230D01*
X18840D01*
X19007Y8396D01*
Y8730D01*
X18840Y8896D01*
X18174Y9896D02*
X18007Y9729D01*
Y9396D01*
X18174Y9229D01*
X18840D01*
X19007Y9396D01*
Y9729D01*
X18840Y9896D01*
X51400Y19200D02*
Y18200D01*
X51900D01*
X52066Y18367D01*
Y18533D01*
X51900Y18700D01*
X51400D01*
X51900D01*
X52066Y18866D01*
Y19033D01*
X51900Y19200D01*
X51400D01*
X53066Y18367D02*
Y19033D01*
X52900Y19200D01*
X52566D01*
X52400Y19033D01*
Y18367D01*
X52566Y18200D01*
X52900D01*
X52733Y18533D02*
X53066Y18200D01*
X52900D02*
X53066Y18367D01*
X53399Y18200D02*
X53733D01*
X53566D01*
Y19200D01*
X53399Y19033D01*
X58400Y10700D02*
X59066Y9700D01*
Y10700D02*
X58400Y9700D01*
X59400D02*
Y10700D01*
X59900D01*
X60066Y10533D01*
Y10200D01*
X59900Y10033D01*
X59400D01*
X60399Y9700D02*
X60733D01*
X60566D01*
Y10700D01*
X60399Y10533D01*
X6400Y4700D02*
X7066Y3700D01*
Y4700D02*
X6400Y3700D01*
X8066Y4533D02*
X7900Y4700D01*
X7566D01*
X7400Y4533D01*
Y4366D01*
X7566Y4200D01*
X7900D01*
X8066Y4033D01*
Y3867D01*
X7900Y3700D01*
X7566D01*
X7400Y3867D01*
X8399Y3700D02*
X8733D01*
X8566D01*
Y4700D01*
X8399Y4533D01*
X700Y29200D02*
X1366Y28200D01*
Y29200D02*
X700Y28200D01*
X1700D02*
Y29200D01*
X2200D01*
X2366Y29033D01*
Y28700D01*
X2200Y28533D01*
X1700D01*
X3366Y28200D02*
X2699D01*
X3366Y28866D01*
Y29033D01*
X3199Y29200D01*
X2866D01*
X2699Y29033D01*
X10600Y23900D02*
Y23233D01*
X10933Y22900D01*
X11266Y23233D01*
Y23900D01*
X11600D02*
X12266D01*
X11933D01*
Y22900D01*
X12599D02*
X12933D01*
X12766D01*
Y23900D01*
X12599Y23733D01*
X12600Y29200D02*
Y28533D01*
X12933Y28200D01*
X13266Y28533D01*
Y29200D01*
X13600D02*
Y28200D01*
X14100D01*
X14266Y28367D01*
Y29033D01*
X14100Y29200D01*
X13600D01*
X14599Y28200D02*
X14933D01*
X14766D01*
Y29200D01*
X14599Y29033D01*
X24466Y33133D02*
X24300Y33300D01*
X23967D01*
X23800Y33133D01*
Y32966D01*
X23967Y32800D01*
X24300D01*
X24466Y32633D01*
Y32467D01*
X24300Y32300D01*
X23967D01*
X23800Y32467D01*
X24800Y33300D02*
Y32300D01*
X25300D01*
X25466Y32467D01*
Y32633D01*
X25300Y32800D01*
X24800D01*
X25300D01*
X25466Y32966D01*
Y33133D01*
X25300Y33300D01*
X24800D01*
X25799Y32300D02*
X26133D01*
X25966D01*
Y33300D01*
X25799Y33133D01*
X16800Y14700D02*
Y15700D01*
X17300D01*
X17466Y15533D01*
Y15200D01*
X17300Y15033D01*
X16800D01*
X17133D02*
X17466Y14700D01*
X18466D02*
X17800D01*
X18466Y15366D01*
Y15533D01*
X18300Y15700D01*
X17966D01*
X17800Y15533D01*
X17800Y28200D02*
Y29200D01*
X18300D01*
X18466Y29033D01*
Y28700D01*
X18300Y28533D01*
X17800D01*
X18133D02*
X18466Y28200D01*
X18800D02*
X19133D01*
X18966D01*
Y29200D01*
X18800Y29033D01*
X49800Y6400D02*
Y5400D01*
X50300D01*
X50466Y5567D01*
Y6233D01*
X50300Y6400D01*
X49800D01*
X50800D02*
Y5400D01*
X51300D01*
X51466Y5567D01*
Y6233D01*
X51300Y6400D01*
X50800D01*
X51799Y5400D02*
X52133D01*
X51966D01*
Y6400D01*
X51799Y6233D01*
X52100Y29800D02*
Y28800D01*
X52600D01*
X52766Y28967D01*
Y29633D01*
X52600Y29800D01*
X52100D01*
X53100Y28800D02*
Y29466D01*
X53433Y29800D01*
X53766Y29466D01*
Y28800D01*
Y29300D01*
X53100D01*
X54099Y28800D02*
X54433D01*
X54266D01*
Y29800D01*
X54099Y29633D01*
X42766Y26333D02*
X42600Y26500D01*
X42267D01*
X42100Y26333D01*
Y25667D01*
X42267Y25500D01*
X42600D01*
X42766Y25667D01*
X43600Y25500D02*
Y26500D01*
X43100Y26000D01*
X43766D01*
X39666Y26433D02*
X39500Y26600D01*
X39167D01*
X39000Y26433D01*
Y25767D01*
X39167Y25600D01*
X39500D01*
X39666Y25767D01*
X40000Y26433D02*
X40166Y26600D01*
X40500D01*
X40666Y26433D01*
Y26266D01*
X40500Y26100D01*
X40333D01*
X40500D01*
X40666Y25933D01*
Y25767D01*
X40500Y25600D01*
X40166D01*
X40000Y25767D01*
X46107Y31897D02*
X45940Y32064D01*
X45607D01*
X45441Y31897D01*
Y31231D01*
X45607Y31064D01*
X45940D01*
X46107Y31231D01*
X47107Y31064D02*
X46440D01*
X47107Y31731D01*
Y31897D01*
X46940Y32064D01*
X46607D01*
X46440Y31897D01*
X48266Y26433D02*
X48100Y26600D01*
X47767D01*
X47600Y26433D01*
Y25767D01*
X47767Y25600D01*
X48100D01*
X48266Y25767D01*
X48600Y25600D02*
X48933D01*
X48766D01*
Y26600D01*
X48600Y26433D01*
D12*
X51068Y17000D02*
G03*
X48515Y19553I-2553J0D01*
G01*
X42165D02*
G03*
X42165Y14447I0J-2553D01*
G01*
X48515D02*
G03*
X51068Y17000I0J2553D01*
G01*
X32331Y20434D02*
Y21331D01*
X22069Y20434D02*
Y21331D01*
Y11069D02*
X22966D01*
X32331D02*
Y11966D01*
X31434Y21331D02*
X32331D01*
X22069D02*
X22966D01*
X22069Y11069D02*
Y11966D01*
X31434Y11069D02*
X32331D01*
X51697Y24762D02*
X53703D01*
X51697Y26037D02*
Y26763D01*
Y28038D02*
X53703D01*
X38215Y17000D02*
X39485D01*
X38850Y16365D02*
Y17635D01*
X42165Y19553D02*
X48515D01*
X42165Y14447D02*
X48515D01*
D13*
X46695Y2895D02*
G03*
X46695Y2895I-200J0D01*
G01*
D14*
X62250Y12000D02*
Y24000D01*
X61500D02*
X62250D01*
X61500Y12000D02*
X62250D01*
M02*
