G04*
G04 #@! TF.GenerationSoftware,Altium Limited,Altium Designer,18.1.2 (67)*
G04*
G04 Layer_Physical_Order=1*
G04 Layer_Color=255*
%FSLAX43Y43*%
%MOMM*%
G71*
G01*
G75*
%ADD11C,0.250*%
%ADD15R,0.295X1.194*%
%ADD16R,1.194X0.295*%
%ADD17R,0.972X0.508*%
%ADD29C,1.300*%
%ADD31R,1.600X1.000*%
%ADD32R,1.000X0.600*%
%ADD33R,1.800X0.640*%
%ADD34R,1.000X1.600*%
%ADD35C,0.450*%
%ADD36C,0.254*%
%ADD37C,0.600*%
%ADD38O,3.150X1.575*%
%ADD39C,1.500*%
%ADD40C,0.710*%
G36*
X57760Y33240D02*
X57737Y33000D01*
X57770Y32656D01*
X57871Y32325D01*
X58000Y32083D01*
Y24467D01*
X57969Y24444D01*
X57844Y24280D01*
X57710Y24311D01*
X57696Y24384D01*
X57603Y24523D01*
X56728Y25397D01*
Y26596D01*
X56696Y26760D01*
X56603Y26899D01*
X56024Y27478D01*
X55885Y27571D01*
X55845Y27579D01*
X55771Y27653D01*
X55632Y27746D01*
X55468Y27778D01*
X54759D01*
Y27814D01*
X53366D01*
Y26886D01*
X53366D01*
Y26864D01*
X53366D01*
Y25936D01*
X53366D01*
Y25914D01*
X53366D01*
Y24986D01*
X54759D01*
Y25022D01*
X55893D01*
X55997Y24917D01*
X55997Y24917D01*
X56872Y24043D01*
Y22361D01*
X56683Y22217D01*
X56522Y22007D01*
X56421Y21762D01*
X56386Y21500D01*
X56421Y21238D01*
X56522Y20993D01*
X56683Y20783D01*
X56893Y20622D01*
X57138Y20521D01*
X57400Y20486D01*
X57662Y20521D01*
X57875Y20609D01*
X58000Y20552D01*
Y19948D01*
X57875Y19891D01*
X57662Y19979D01*
X57400Y20014D01*
X57138Y19979D01*
X56893Y19878D01*
X56683Y19717D01*
X56522Y19507D01*
X56447Y19326D01*
X55200D01*
X55075Y19301D01*
X54969Y19231D01*
X54177Y18438D01*
X54168Y18432D01*
X54097Y18326D01*
X54072Y18200D01*
Y10336D01*
X53264Y9528D01*
X49110D01*
Y9730D01*
X46890D01*
Y8670D01*
X49110D01*
Y8872D01*
X53400D01*
X53526Y8897D01*
X53632Y8968D01*
X54632Y9968D01*
X54703Y10074D01*
X54728Y10200D01*
Y18067D01*
X55335Y18674D01*
X56447D01*
X56522Y18493D01*
X56683Y18283D01*
X56893Y18122D01*
X57025Y18068D01*
Y17932D01*
X56893Y17878D01*
X56683Y17717D01*
X56522Y17507D01*
X56448Y17328D01*
X56100D01*
X56100Y17328D01*
X55974Y17303D01*
X55868Y17232D01*
X55868Y17232D01*
X55268Y16632D01*
X55197Y16526D01*
X55172Y16400D01*
Y10036D01*
X53394Y8258D01*
X49110D01*
Y8460D01*
X46890D01*
Y7400D01*
X49110D01*
Y7602D01*
X53530D01*
X53656Y7627D01*
X53762Y7698D01*
X55732Y9668D01*
X55803Y9774D01*
X55828Y9900D01*
Y16264D01*
X56236Y16672D01*
X56448D01*
X56522Y16493D01*
X56683Y16283D01*
X56893Y16122D01*
X57138Y16021D01*
X57400Y15986D01*
X57662Y16021D01*
X57875Y16109D01*
X58000Y16052D01*
Y15448D01*
X57875Y15391D01*
X57662Y15479D01*
X57400Y15514D01*
X57138Y15479D01*
X56893Y15378D01*
X56683Y15217D01*
X56522Y15007D01*
X56421Y14762D01*
X56386Y14500D01*
X56421Y14238D01*
X56522Y13993D01*
X56683Y13783D01*
X56893Y13622D01*
X57138Y13521D01*
X57400Y13486D01*
X57662Y13521D01*
X57875Y13609D01*
X58000Y13552D01*
Y13067D01*
X57969Y13044D01*
X57802Y12826D01*
X57697Y12572D01*
X57661Y12300D01*
X57697Y12028D01*
X57802Y11774D01*
X57969Y11556D01*
X58000Y11533D01*
Y3917D01*
X57871Y3675D01*
X57770Y3344D01*
X57737Y3000D01*
X57760Y2760D01*
X55000Y0D01*
X3000D01*
X0Y3000D01*
Y33000D01*
X3000Y36000D01*
X55000D01*
X57760Y33240D01*
D02*
G37*
%LPC*%
G36*
X34350Y34264D02*
X34088Y34229D01*
X33843Y34128D01*
X33633Y33967D01*
X33472Y33757D01*
X33371Y33512D01*
X33336Y33250D01*
X33371Y32988D01*
X33472Y32743D01*
X33633Y32533D01*
X33843Y32372D01*
X34088Y32271D01*
X34350Y32236D01*
X34612Y32271D01*
X34857Y32372D01*
X35067Y32533D01*
X35228Y32743D01*
X35329Y32988D01*
X35364Y33250D01*
X35329Y33512D01*
X35228Y33757D01*
X35067Y33967D01*
X34857Y34128D01*
X34612Y34229D01*
X34350Y34264D01*
D02*
G37*
G36*
X27850D02*
X27588Y34229D01*
X27343Y34128D01*
X27133Y33967D01*
X26972Y33757D01*
X26871Y33512D01*
X26836Y33250D01*
X26871Y32988D01*
X26972Y32743D01*
X27133Y32533D01*
X27343Y32372D01*
X27588Y32271D01*
X27850Y32236D01*
X28112Y32271D01*
X28357Y32372D01*
X28567Y32533D01*
X28728Y32743D01*
X28829Y32988D01*
X28864Y33250D01*
X28829Y33512D01*
X28728Y33757D01*
X28567Y33967D01*
X28357Y34128D01*
X28112Y34229D01*
X27850Y34264D01*
D02*
G37*
G36*
X3000Y34763D02*
X2656Y34730D01*
X2325Y34629D01*
X2020Y34466D01*
X1753Y34247D01*
X1534Y33980D01*
X1371Y33675D01*
X1270Y33344D01*
X1237Y33000D01*
X1270Y32656D01*
X1371Y32325D01*
X1534Y32020D01*
X1753Y31753D01*
X2020Y31534D01*
X2325Y31371D01*
X2656Y31270D01*
X3000Y31237D01*
X3344Y31270D01*
X3675Y31371D01*
X3980Y31534D01*
X4247Y31753D01*
X4466Y32020D01*
X4629Y32325D01*
X4730Y32656D01*
X4763Y33000D01*
X4730Y33344D01*
X4629Y33675D01*
X4466Y33980D01*
X4247Y34247D01*
X3980Y34466D01*
X3675Y34629D01*
X3344Y34730D01*
X3000Y34763D01*
D02*
G37*
G36*
X17610Y31910D02*
X16190D01*
Y31226D01*
X15710D01*
Y31910D01*
X14290D01*
Y29890D01*
X15710D01*
Y30574D01*
X16190D01*
Y29890D01*
X17610D01*
Y31910D01*
D02*
G37*
G36*
X20610D02*
X20025D01*
Y31025D01*
X20610D01*
Y31910D01*
D02*
G37*
G36*
X19775D02*
X19190D01*
Y31025D01*
X19775D01*
Y31910D01*
D02*
G37*
G36*
X20610Y30775D02*
X20025D01*
Y29890D01*
X20610D01*
Y30775D01*
D02*
G37*
G36*
X19775D02*
X19190D01*
Y29890D01*
X19775D01*
Y30775D01*
D02*
G37*
G36*
X46710Y30210D02*
X45290D01*
Y29528D01*
X45042D01*
X44997Y29597D01*
X44815Y29718D01*
X44600Y29761D01*
X44385Y29718D01*
X44203Y29597D01*
X44082Y29415D01*
X44039Y29200D01*
X44082Y28985D01*
X44203Y28803D01*
X44385Y28682D01*
X44600Y28639D01*
X44815Y28682D01*
X44997Y28803D01*
X45042Y28872D01*
X45290D01*
Y28190D01*
X46710D01*
Y30210D01*
D02*
G37*
G36*
X34350Y29764D02*
X34088Y29729D01*
X33843Y29628D01*
X33633Y29467D01*
X33472Y29257D01*
X33398Y29078D01*
X28802D01*
X28728Y29257D01*
X28567Y29467D01*
X28357Y29628D01*
X28112Y29729D01*
X27850Y29764D01*
X27588Y29729D01*
X27343Y29628D01*
X27133Y29467D01*
X26972Y29257D01*
X26871Y29012D01*
X26836Y28750D01*
X26871Y28488D01*
X26972Y28243D01*
X27133Y28033D01*
X27343Y27872D01*
X27588Y27771D01*
X27622Y27766D01*
Y25742D01*
X27553Y25697D01*
X27432Y25515D01*
X27389Y25300D01*
X27432Y25085D01*
X27553Y24903D01*
X27622Y24858D01*
Y22757D01*
X25075D01*
Y21950D01*
X24825D01*
Y22757D01*
X23093D01*
Y21143D01*
X23124D01*
Y20950D01*
X23149Y20825D01*
X23219Y20719D01*
X23537Y20401D01*
X23486Y20276D01*
X22257D01*
Y20308D01*
X20643D01*
Y20216D01*
X20518Y20149D01*
X20415Y20218D01*
X20200Y20261D01*
X19985Y20218D01*
X19803Y20097D01*
X19682Y19915D01*
X19639Y19700D01*
X19682Y19485D01*
X19803Y19303D01*
X19985Y19182D01*
X20200Y19139D01*
X20304Y19160D01*
X20324Y19147D01*
X20450Y19122D01*
X20643D01*
Y19075D01*
X22257D01*
Y19624D01*
X23515D01*
X30488Y12651D01*
X30451Y12531D01*
X30385Y12518D01*
X30203Y12397D01*
X30099Y12240D01*
X29961Y12200D01*
X29831Y12331D01*
X29725Y12401D01*
X29600Y12426D01*
X29543D01*
X29497Y12497D01*
X29315Y12618D01*
X29100Y12661D01*
X28885Y12618D01*
X28703Y12497D01*
X28582Y12315D01*
X28539Y12100D01*
X28582Y11885D01*
X28703Y11703D01*
X28885Y11582D01*
X29100Y11539D01*
X29315Y11582D01*
X29497Y11703D01*
X29532Y11707D01*
X29624Y11615D01*
Y11257D01*
X23093D01*
Y9643D01*
X27622D01*
Y6986D01*
X25964Y5328D01*
X19269D01*
X19195Y5507D01*
X19034Y5717D01*
X18824Y5878D01*
X18579Y5979D01*
X18317Y6014D01*
X18054Y5979D01*
X17810Y5878D01*
X17600Y5717D01*
X17439Y5507D01*
X17338Y5262D01*
X17303Y5000D01*
X17338Y4738D01*
X17439Y4493D01*
X17600Y4283D01*
X17668Y4231D01*
X17625Y4106D01*
X16468D01*
X16426Y4231D01*
X16494Y4283D01*
X16655Y4493D01*
X16756Y4738D01*
X16791Y5000D01*
X16756Y5262D01*
X16655Y5507D01*
X16494Y5717D01*
X16284Y5878D01*
X16039Y5979D01*
X15777Y6014D01*
X15514Y5979D01*
X15270Y5878D01*
X15060Y5717D01*
X14899Y5507D01*
X14798Y5262D01*
X14763Y5000D01*
X14798Y4738D01*
X14899Y4493D01*
X15060Y4283D01*
X15128Y4231D01*
X15085Y4106D01*
X13928D01*
X13886Y4231D01*
X13954Y4283D01*
X14115Y4493D01*
X14216Y4738D01*
X14251Y5000D01*
X14216Y5262D01*
X14115Y5507D01*
X13954Y5717D01*
X13744Y5878D01*
X13499Y5979D01*
X13237Y6014D01*
X12974Y5979D01*
X12730Y5878D01*
X12520Y5717D01*
X12359Y5507D01*
X12258Y5262D01*
X12223Y5000D01*
X12258Y4738D01*
X12359Y4493D01*
X12520Y4283D01*
X12559Y4253D01*
X12517Y4128D01*
X12037D01*
X11911Y4103D01*
X11805Y4032D01*
X11138Y3365D01*
X10959Y3439D01*
X10697Y3474D01*
X10434Y3439D01*
X10190Y3338D01*
X9980Y3177D01*
X9819Y2967D01*
X9718Y2722D01*
X9683Y2460D01*
X9718Y2198D01*
X9819Y1953D01*
X9980Y1743D01*
X10190Y1582D01*
X10434Y1481D01*
X10697Y1446D01*
X10959Y1481D01*
X11204Y1582D01*
X11414Y1743D01*
X11575Y1953D01*
X11676Y2198D01*
X11711Y2460D01*
X11676Y2722D01*
X11602Y2901D01*
X12173Y3472D01*
X12620D01*
X12692Y3457D01*
X12717Y3378D01*
X12719Y3331D01*
X12719Y3329D01*
X12520Y3177D01*
X12359Y2967D01*
X12258Y2722D01*
X12223Y2460D01*
X12258Y2198D01*
X12359Y1953D01*
X12520Y1743D01*
X12730Y1582D01*
X12974Y1481D01*
X13237Y1446D01*
X13499Y1481D01*
X13678Y1555D01*
X14676Y557D01*
X14782Y486D01*
X14908Y461D01*
X24389D01*
X24515Y486D01*
X24621Y557D01*
X29682Y5618D01*
X29753Y5724D01*
X29778Y5850D01*
Y9643D01*
X30825D01*
Y10450D01*
X31075D01*
Y9643D01*
X31308D01*
Y9986D01*
X31433Y10024D01*
X31469Y9969D01*
X39969Y1469D01*
X40075Y1399D01*
X40200Y1374D01*
X43900D01*
X44025Y1399D01*
X44131Y1469D01*
X46455Y3794D01*
X46890D01*
Y3590D01*
X49110D01*
Y4650D01*
X46890D01*
Y4446D01*
X46320D01*
X46195Y4421D01*
X46089Y4351D01*
X43765Y2026D01*
X40335D01*
X32026Y10335D01*
Y11900D01*
X32005Y12005D01*
X32020Y12043D01*
X32030Y12058D01*
X32032Y12060D01*
X32143Y12092D01*
X32143Y12092D01*
X32143Y12092D01*
X33757D01*
Y13092D01*
Y14298D01*
X33882Y14336D01*
X33903Y14303D01*
X34085Y14182D01*
X34300Y14139D01*
X34515Y14182D01*
X34697Y14303D01*
X34818Y14485D01*
X34861Y14700D01*
X34818Y14915D01*
X34697Y15097D01*
X34626Y15143D01*
Y17500D01*
X34601Y17625D01*
X34531Y17731D01*
X34081Y18181D01*
X33975Y18251D01*
X33850Y18276D01*
X33757D01*
Y18498D01*
X33882Y18536D01*
X33903Y18503D01*
X34085Y18382D01*
X34300Y18339D01*
X34515Y18382D01*
X34697Y18503D01*
X34818Y18685D01*
X34861Y18900D01*
X34818Y19115D01*
X34697Y19297D01*
X34515Y19418D01*
X34300Y19461D01*
X34220Y19445D01*
X33982Y19682D01*
X33876Y19753D01*
X33757Y19777D01*
Y19825D01*
X32950D01*
Y19950D01*
X32825D01*
Y20308D01*
X32532D01*
X32484Y20423D01*
X32835Y20774D01*
X36365D01*
X36974Y20165D01*
Y19200D01*
X36999Y19075D01*
X37069Y18969D01*
X43774Y12265D01*
Y7700D01*
X43799Y7575D01*
X43869Y7469D01*
X46179Y5159D01*
X46285Y5089D01*
X46410Y5064D01*
X46890D01*
Y4860D01*
X49110D01*
Y5920D01*
X46890D01*
Y5716D01*
X46545D01*
X44426Y7835D01*
Y12400D01*
X44401Y12525D01*
X44331Y12631D01*
X37626Y19335D01*
Y20300D01*
X37601Y20425D01*
X37531Y20531D01*
X36731Y21331D01*
X36625Y21401D01*
X36500Y21426D01*
X32700D01*
X32575Y21401D01*
X32469Y21331D01*
X30865Y19726D01*
X25135D01*
X23843Y21018D01*
X23895Y21143D01*
X24845D01*
X24923Y21018D01*
X24889Y20850D01*
X24932Y20635D01*
X25053Y20453D01*
X25235Y20332D01*
X25450Y20289D01*
X25665Y20332D01*
X25847Y20453D01*
X25968Y20635D01*
X26011Y20850D01*
X25977Y21018D01*
X26055Y21143D01*
X30825D01*
Y21950D01*
X30950D01*
D01*
X30825D01*
Y22757D01*
X28278D01*
Y24858D01*
X28347Y24903D01*
X28468Y25085D01*
X28511Y25300D01*
X28468Y25515D01*
X28347Y25697D01*
X28278Y25742D01*
Y27840D01*
X28357Y27872D01*
X28567Y28033D01*
X28728Y28243D01*
X28802Y28422D01*
X33398D01*
X33472Y28243D01*
X33633Y28033D01*
X33843Y27872D01*
X34088Y27771D01*
X34350Y27736D01*
X34612Y27771D01*
X34857Y27872D01*
X35067Y28033D01*
X35228Y28243D01*
X35329Y28488D01*
X35364Y28750D01*
X35329Y29012D01*
X35228Y29257D01*
X35067Y29467D01*
X34857Y29628D01*
X34612Y29729D01*
X34350Y29764D01*
D02*
G37*
G36*
X49710Y30210D02*
X48290D01*
Y28190D01*
X49710D01*
X49772Y28091D01*
Y27800D01*
X49797Y27674D01*
X49868Y27568D01*
X50318Y27118D01*
X50424Y27047D01*
X50550Y27022D01*
X50641D01*
Y26886D01*
X52034D01*
Y27814D01*
X50641D01*
Y27814D01*
X50577Y27787D01*
X50428Y27936D01*
Y28900D01*
X50403Y29026D01*
X50332Y29132D01*
X50032Y29432D01*
X49926Y29503D01*
X49800Y29528D01*
X49710D01*
Y30210D01*
D02*
G37*
G36*
X52034Y25914D02*
X51463D01*
Y25575D01*
X52034D01*
Y25914D01*
D02*
G37*
G36*
X51213D02*
X50641D01*
Y25575D01*
X51213D01*
Y25914D01*
D02*
G37*
G36*
X52034Y25325D02*
X51463D01*
Y24986D01*
X52034D01*
Y25325D01*
D02*
G37*
G36*
X51213D02*
X50641D01*
Y24986D01*
X51213D01*
Y25325D01*
D02*
G37*
G36*
X44600Y26261D02*
X44385Y26218D01*
X44203Y26097D01*
X44082Y25915D01*
X44039Y25700D01*
X44082Y25485D01*
X44203Y25303D01*
X44272Y25258D01*
Y24910D01*
X43590D01*
Y24528D01*
X41610D01*
Y24910D01*
X39590D01*
Y23490D01*
X41610D01*
Y23872D01*
X43590D01*
Y23490D01*
X45610D01*
Y23872D01*
X47390D01*
Y23490D01*
X49410D01*
Y24910D01*
X47390D01*
Y24528D01*
X45610D01*
Y24910D01*
X44928D01*
Y25258D01*
X44997Y25303D01*
X45118Y25485D01*
X45161Y25700D01*
X45118Y25915D01*
X44997Y26097D01*
X44815Y26218D01*
X44600Y26261D01*
D02*
G37*
G36*
X2000Y24734D02*
X1738Y24699D01*
X1493Y24598D01*
X1283Y24437D01*
X1122Y24227D01*
X1021Y23982D01*
X986Y23720D01*
X1021Y23458D01*
X1122Y23213D01*
X1283Y23003D01*
X1493Y22842D01*
X1738Y22741D01*
X2000Y22706D01*
X2262Y22741D01*
X2507Y22842D01*
X2717Y23003D01*
X2878Y23213D01*
X2979Y23458D01*
X3014Y23720D01*
X2979Y23982D01*
X2878Y24227D01*
X2717Y24437D01*
X2507Y24598D01*
X2262Y24699D01*
X2000Y24734D01*
D02*
G37*
G36*
X31308Y22757D02*
X31075D01*
Y22075D01*
X31308D01*
Y22757D01*
D02*
G37*
G36*
X49410Y21910D02*
X48525D01*
Y21325D01*
X49410D01*
Y21910D01*
D02*
G37*
G36*
X48275D02*
X47390D01*
Y21325D01*
X48275D01*
Y21910D01*
D02*
G37*
G36*
X31308Y21825D02*
X31075D01*
Y21143D01*
X31308D01*
Y21825D01*
D02*
G37*
G36*
X12710Y31910D02*
X11290D01*
Y29890D01*
X11674D01*
Y23000D01*
X11699Y22875D01*
X11769Y22769D01*
X13369Y21169D01*
X13475Y21099D01*
X13600Y21074D01*
X13890D01*
Y20890D01*
X15310D01*
Y21910D01*
X13890D01*
Y21726D01*
X13735D01*
X12326Y23135D01*
Y29890D01*
X12710D01*
Y31910D01*
D02*
G37*
G36*
X49410Y21075D02*
X48525D01*
Y20490D01*
X49410D01*
Y21075D01*
D02*
G37*
G36*
X48275D02*
X47390D01*
Y20490D01*
X48275D01*
Y21075D01*
D02*
G37*
G36*
X2000Y22194D02*
X1738Y22159D01*
X1493Y22058D01*
X1283Y21897D01*
X1122Y21687D01*
X1021Y21442D01*
X986Y21180D01*
X1021Y20918D01*
X1122Y20673D01*
X1283Y20463D01*
X1493Y20302D01*
X1738Y20201D01*
X2000Y20166D01*
X2262Y20201D01*
X2507Y20302D01*
X2717Y20463D01*
X2878Y20673D01*
X2979Y20918D01*
X3014Y21180D01*
X2979Y21442D01*
X2878Y21687D01*
X2717Y21897D01*
X2507Y22058D01*
X2262Y22159D01*
X2000Y22194D01*
D02*
G37*
G36*
X33757Y20308D02*
X33075D01*
Y20075D01*
X33757D01*
Y20308D01*
D02*
G37*
G36*
X9500Y22661D02*
X9285Y22618D01*
X9103Y22497D01*
X8982Y22315D01*
X8939Y22100D01*
X8982Y21885D01*
X8995Y21865D01*
Y21300D01*
X9034Y21107D01*
X9143Y20943D01*
X9993Y20093D01*
X10157Y19984D01*
X10350Y19945D01*
X11490D01*
Y19940D01*
X12910D01*
Y20960D01*
X11490D01*
Y20955D01*
X10559D01*
X10005Y21509D01*
Y21865D01*
X10018Y21885D01*
X10061Y22100D01*
X10018Y22315D01*
X9897Y22497D01*
X9715Y22618D01*
X9500Y22661D01*
D02*
G37*
G36*
X18910Y20910D02*
X16890D01*
Y20526D01*
X16800D01*
X16675Y20501D01*
X16569Y20431D01*
X15965Y19826D01*
X15310D01*
Y20010D01*
X13890D01*
Y18990D01*
X15310D01*
Y19174D01*
X16100D01*
X16225Y19199D01*
X16331Y19269D01*
X16775Y19713D01*
X16890Y19665D01*
Y19490D01*
X18910D01*
Y20910D01*
D02*
G37*
G36*
X2000Y19654D02*
X1738Y19619D01*
X1493Y19518D01*
X1283Y19357D01*
X1122Y19147D01*
X1021Y18902D01*
X986Y18640D01*
X1021Y18378D01*
X1122Y18133D01*
X1283Y17923D01*
X1493Y17762D01*
X1738Y17661D01*
X2000Y17626D01*
X2262Y17661D01*
X2507Y17762D01*
X2717Y17923D01*
X2878Y18133D01*
X2979Y18378D01*
X3014Y18640D01*
X2979Y18902D01*
X2878Y19147D01*
X2717Y19357D01*
X2507Y19518D01*
X2262Y19619D01*
X2000Y19654D01*
D02*
G37*
G36*
X22257Y18825D02*
X20643D01*
Y18093D01*
Y17276D01*
X18910D01*
Y17910D01*
X16890D01*
Y16490D01*
X18910D01*
Y16624D01*
X20643D01*
Y16093D01*
Y15092D01*
Y14092D01*
Y13092D01*
Y12575D01*
X22257D01*
Y12622D01*
X22350D01*
X22476Y12647D01*
X22582Y12718D01*
X22920Y13055D01*
X23000Y13039D01*
X23215Y13082D01*
X23397Y13203D01*
X23518Y13385D01*
X23561Y13600D01*
X23518Y13815D01*
X23397Y13997D01*
X23215Y14118D01*
X23000Y14161D01*
X22785Y14118D01*
X22603Y13997D01*
X22482Y13815D01*
X22439Y13600D01*
X22455Y13520D01*
X22372Y13437D01*
X22257Y13485D01*
Y14592D01*
Y15592D01*
Y16593D01*
Y17593D01*
Y18593D01*
Y18825D01*
D02*
G37*
G36*
X2000Y17114D02*
X1738Y17079D01*
X1493Y16978D01*
X1283Y16817D01*
X1122Y16607D01*
X1021Y16362D01*
X986Y16100D01*
X1021Y15838D01*
X1122Y15593D01*
X1283Y15383D01*
X1493Y15222D01*
X1738Y15121D01*
X2000Y15086D01*
X2262Y15121D01*
X2507Y15222D01*
X2717Y15383D01*
X2878Y15593D01*
X2979Y15838D01*
X3014Y16100D01*
X2979Y16362D01*
X2878Y16607D01*
X2717Y16817D01*
X2507Y16978D01*
X2262Y17079D01*
X2000Y17114D01*
D02*
G37*
G36*
X22257Y12325D02*
X21575D01*
Y12092D01*
X22257D01*
Y12325D01*
D02*
G37*
G36*
X21325D02*
X20643D01*
Y12092D01*
X21325D01*
Y12325D01*
D02*
G37*
G36*
X45610Y21910D02*
X43590D01*
Y20490D01*
X44272D01*
Y18200D01*
X44297Y18074D01*
X44368Y17968D01*
X45568Y16768D01*
X45674Y16697D01*
X45800Y16672D01*
X46936D01*
X46989Y16544D01*
X47135Y16355D01*
X47324Y16209D01*
X47544Y16118D01*
X47780Y16087D01*
X48016Y16118D01*
X48236Y16209D01*
X48425Y16355D01*
X48571Y16544D01*
X48624Y16672D01*
X49364D01*
X49672Y16364D01*
Y12436D01*
X49304Y12068D01*
X49110D01*
Y12270D01*
X46890D01*
Y11210D01*
X49110D01*
Y11412D01*
X49440D01*
X49566Y11437D01*
X49672Y11508D01*
X50232Y12068D01*
X50303Y12174D01*
X50328Y12300D01*
Y16500D01*
X50303Y16626D01*
X50232Y16732D01*
X49732Y17232D01*
X49626Y17303D01*
X49500Y17328D01*
X48624D01*
X48571Y17456D01*
X48425Y17645D01*
X48236Y17791D01*
X48016Y17882D01*
X47780Y17913D01*
X47544Y17882D01*
X47324Y17791D01*
X47135Y17645D01*
X46989Y17456D01*
X46936Y17328D01*
X45936D01*
X44928Y18336D01*
Y20490D01*
X45610D01*
Y21910D01*
D02*
G37*
G36*
X42900Y12270D02*
X40680D01*
Y11210D01*
X42900D01*
Y12270D01*
D02*
G37*
G36*
X41610Y21910D02*
X39590D01*
Y20490D01*
X40272D01*
Y18000D01*
X40297Y17874D01*
X40368Y17768D01*
X41368Y16768D01*
X41474Y16697D01*
X41600Y16672D01*
X42056D01*
X42109Y16544D01*
X42255Y16355D01*
X42444Y16209D01*
X42664Y16118D01*
X42900Y16087D01*
X43136Y16118D01*
X43356Y16209D01*
X43545Y16355D01*
X43691Y16544D01*
X43744Y16672D01*
X44264D01*
X44772Y16164D01*
Y11600D01*
X44797Y11474D01*
X44868Y11368D01*
X45998Y10238D01*
X46104Y10167D01*
X46230Y10142D01*
X46890D01*
Y9940D01*
X49110D01*
Y11000D01*
X46890D01*
Y10798D01*
X46366D01*
X45428Y11736D01*
Y16300D01*
X45428Y16300D01*
X45403Y16426D01*
X45332Y16532D01*
X45332Y16532D01*
X44632Y17232D01*
X44526Y17303D01*
X44400Y17328D01*
X43744D01*
X43691Y17456D01*
X43545Y17645D01*
X43356Y17791D01*
X43136Y17882D01*
X42900Y17913D01*
X42664Y17882D01*
X42444Y17791D01*
X42255Y17645D01*
X42109Y17456D01*
X42056Y17328D01*
X41736D01*
X40928Y18136D01*
Y20490D01*
X41610D01*
Y21910D01*
D02*
G37*
G36*
X42900Y11000D02*
X40680D01*
Y9940D01*
X42900D01*
Y11000D01*
D02*
G37*
G36*
Y9730D02*
X40680D01*
Y8670D01*
X42900D01*
Y9730D01*
D02*
G37*
G36*
Y8460D02*
X40680D01*
Y7400D01*
X42900D01*
Y8460D01*
D02*
G37*
G36*
X49110Y7190D02*
X48125D01*
Y6785D01*
X49110D01*
Y7190D01*
D02*
G37*
G36*
X47875D02*
X46890D01*
Y6785D01*
X47875D01*
Y7190D01*
D02*
G37*
G36*
X49110Y6535D02*
X48125D01*
Y6130D01*
X49110D01*
Y6535D01*
D02*
G37*
G36*
X47875D02*
X46890D01*
Y6130D01*
X47875D01*
Y6535D01*
D02*
G37*
G36*
X42900Y7190D02*
X40680D01*
Y6130D01*
X42900D01*
Y7190D01*
D02*
G37*
G36*
Y5920D02*
X40680D01*
Y4860D01*
X42900D01*
Y5920D01*
D02*
G37*
G36*
X10697Y6014D02*
X10434Y5979D01*
X10190Y5878D01*
X9980Y5717D01*
X9819Y5507D01*
X9718Y5262D01*
X9683Y5000D01*
X9718Y4738D01*
X9819Y4493D01*
X9980Y4283D01*
X10190Y4122D01*
X10434Y4021D01*
X10697Y3986D01*
X10959Y4021D01*
X11204Y4122D01*
X11414Y4283D01*
X11575Y4493D01*
X11676Y4738D01*
X11711Y5000D01*
X11676Y5262D01*
X11575Y5507D01*
X11414Y5717D01*
X11204Y5878D01*
X10959Y5979D01*
X10697Y6014D01*
D02*
G37*
G36*
X42900Y4650D02*
X40680D01*
Y3590D01*
X42900D01*
Y4650D01*
D02*
G37*
G36*
X49750Y3411D02*
X49535Y3368D01*
X49515Y3355D01*
X49110D01*
Y3380D01*
X46890D01*
Y2320D01*
X49110D01*
Y2345D01*
X49515D01*
X49535Y2332D01*
X49750Y2289D01*
X49965Y2332D01*
X50147Y2453D01*
X50268Y2635D01*
X50311Y2850D01*
X50268Y3065D01*
X50147Y3247D01*
X49965Y3368D01*
X49750Y3411D01*
D02*
G37*
G36*
X42900Y3380D02*
X41915D01*
Y2975D01*
X42900D01*
Y3380D01*
D02*
G37*
G36*
X41665D02*
X40680D01*
Y2975D01*
X41665D01*
Y3380D01*
D02*
G37*
G36*
X42900Y2725D02*
X41915D01*
Y2320D01*
X42900D01*
Y2725D01*
D02*
G37*
G36*
X41665D02*
X40680D01*
Y2320D01*
X41665D01*
Y2725D01*
D02*
G37*
G36*
X3000Y4763D02*
X2656Y4730D01*
X2325Y4629D01*
X2020Y4466D01*
X1753Y4247D01*
X1534Y3980D01*
X1371Y3675D01*
X1270Y3344D01*
X1237Y3000D01*
X1270Y2656D01*
X1371Y2325D01*
X1534Y2020D01*
X1753Y1753D01*
X2020Y1534D01*
X2325Y1371D01*
X2656Y1270D01*
X3000Y1237D01*
X3344Y1270D01*
X3675Y1371D01*
X3980Y1534D01*
X4247Y1753D01*
X4466Y2020D01*
X4629Y2325D01*
X4730Y2656D01*
X4763Y3000D01*
X4730Y3344D01*
X4629Y3675D01*
X4466Y3980D01*
X4247Y4247D01*
X3980Y4466D01*
X3675Y4629D01*
X3344Y4730D01*
X3000Y4763D01*
D02*
G37*
%LPD*%
G36*
X25660Y3325D02*
X23902Y1566D01*
X17135D01*
X16682Y2019D01*
X16756Y2198D01*
X16791Y2460D01*
X16756Y2722D01*
X16655Y2967D01*
X16494Y3177D01*
X16301Y3325D01*
X16307Y3388D01*
X16335Y3450D01*
X25609D01*
X25660Y3325D01*
D02*
G37*
D11*
X19700Y18700D02*
X20100D01*
X20350Y18950D01*
X30900Y9000D02*
X30922Y9022D01*
X23650Y19950D02*
X31700Y11900D01*
Y10200D02*
Y11900D01*
Y10200D02*
X40200Y1700D01*
X54400Y18200D02*
X55200Y19000D01*
X57300D01*
X37300Y19200D02*
X44100Y12400D01*
X37300Y19200D02*
Y20300D01*
X44100Y7700D02*
Y12400D01*
X34300Y14700D02*
Y17500D01*
X33850Y17950D02*
X34300Y17500D01*
X32950Y17950D02*
X33850D01*
X21450Y19950D02*
X23650D01*
X25000Y19400D02*
X31000D01*
X23450Y20950D02*
X25000Y19400D01*
X23450Y20950D02*
Y21950D01*
X36500Y21100D02*
X37300Y20300D01*
X32700Y21100D02*
X36500D01*
X31000Y19400D02*
X32700Y21100D01*
X44100Y7700D02*
X46410Y5390D01*
X48000D01*
X40200Y1700D02*
X43900D01*
X46320Y4120D01*
X48000D01*
X32050Y12450D02*
X32950D01*
X31200Y13300D02*
X32050Y12450D01*
X29100Y12100D02*
X29600D01*
X29950Y11750D01*
Y10450D02*
Y11750D01*
X31200Y13300D02*
Y13400D01*
X15000Y30900D02*
X16900D01*
X12000Y23000D02*
Y30900D01*
Y23000D02*
X13600Y21400D01*
X14600D01*
Y19500D02*
X16100D01*
X16800Y20200D01*
X17900D01*
Y17200D02*
X18150Y16950D01*
X21450D01*
X30922Y10422D02*
X30950Y10450D01*
X32950Y19950D02*
X33000Y20000D01*
X34200D01*
X30922Y21978D02*
X30950Y21950D01*
X30922Y21978D02*
Y23278D01*
X30900Y23300D02*
X30922Y23278D01*
X24922Y21978D02*
X24950Y21950D01*
X24922Y21978D02*
Y23378D01*
X24900Y23400D02*
X24922Y23378D01*
X20350Y18950D02*
X21450D01*
X22950Y12450D02*
X23000Y12500D01*
X21450Y12450D02*
X22950D01*
D15*
X30950Y21950D02*
D03*
X30450D02*
D03*
X29950D02*
D03*
X29450D02*
D03*
X28950D02*
D03*
X28450D02*
D03*
X27950D02*
D03*
X27450D02*
D03*
X26950D02*
D03*
X26450D02*
D03*
X25950D02*
D03*
X25450D02*
D03*
X24950D02*
D03*
X24450D02*
D03*
X23950D02*
D03*
X23450D02*
D03*
Y10450D02*
D03*
X23950D02*
D03*
X24450D02*
D03*
X24950D02*
D03*
X25450D02*
D03*
X25950D02*
D03*
X26450D02*
D03*
X26950D02*
D03*
X27450D02*
D03*
X27950D02*
D03*
X28450D02*
D03*
X28950D02*
D03*
X29450D02*
D03*
X29950D02*
D03*
X30450D02*
D03*
X30950D02*
D03*
D16*
X21450Y19950D02*
D03*
Y19450D02*
D03*
Y18950D02*
D03*
Y18450D02*
D03*
Y17950D02*
D03*
Y17450D02*
D03*
Y16950D02*
D03*
Y16450D02*
D03*
Y15950D02*
D03*
Y15450D02*
D03*
Y14950D02*
D03*
Y14450D02*
D03*
Y13950D02*
D03*
Y13450D02*
D03*
Y12950D02*
D03*
Y12450D02*
D03*
X32950D02*
D03*
Y12950D02*
D03*
Y13450D02*
D03*
Y13950D02*
D03*
Y14450D02*
D03*
Y14950D02*
D03*
Y15450D02*
D03*
Y15950D02*
D03*
Y16450D02*
D03*
Y16950D02*
D03*
Y17450D02*
D03*
Y17950D02*
D03*
Y18450D02*
D03*
Y18950D02*
D03*
Y19450D02*
D03*
Y19950D02*
D03*
D17*
X51338Y25450D02*
D03*
Y27350D02*
D03*
X54062D02*
D03*
Y26400D02*
D03*
Y25450D02*
D03*
D29*
X42900Y17000D02*
D03*
X47780D02*
D03*
D31*
X48400Y24200D02*
D03*
Y21200D02*
D03*
X17900Y20200D02*
D03*
Y17200D02*
D03*
X40600Y24200D02*
D03*
Y21200D02*
D03*
X44600Y24200D02*
D03*
Y21200D02*
D03*
D32*
X12200Y20450D02*
D03*
X14600Y21400D02*
D03*
Y19500D02*
D03*
D33*
X48000Y2850D02*
D03*
Y4120D02*
D03*
Y5390D02*
D03*
Y6660D02*
D03*
Y7930D02*
D03*
Y9200D02*
D03*
Y10470D02*
D03*
Y11740D02*
D03*
X41790D02*
D03*
Y10470D02*
D03*
Y9200D02*
D03*
Y7930D02*
D03*
Y6660D02*
D03*
Y5390D02*
D03*
Y4120D02*
D03*
Y2850D02*
D03*
D34*
X15000Y30900D02*
D03*
X12000D02*
D03*
X16900D02*
D03*
X19900D02*
D03*
X46000Y29200D02*
D03*
X49000D02*
D03*
D35*
X57300Y21500D02*
Y24220D01*
X56300Y25220D02*
X57300Y24220D01*
X56070Y25450D02*
X56300Y25220D01*
Y26596D01*
Y25220D02*
Y25220D01*
X56070Y25450D02*
X56070D01*
X55721Y27175D02*
X56300Y26596D01*
X55468Y27350D02*
X55643Y27175D01*
X55721D01*
X56070Y25450D02*
X56300Y25220D01*
X54062Y25450D02*
X56070D01*
X54062Y26400D02*
X55400D01*
X54062Y27350D02*
X55468D01*
D36*
X16999Y1238D02*
X24038D01*
X15777Y2460D02*
X16999Y1238D01*
X27950Y25300D02*
Y28650D01*
Y21950D02*
Y25300D01*
X54400Y10200D02*
Y18200D01*
X55500Y9900D02*
Y16400D01*
X56100Y17000D01*
X57300D01*
X30450Y10450D02*
Y11750D01*
X33750Y19450D02*
X34300Y18900D01*
X32950Y19450D02*
X33750D01*
X22350Y12950D02*
X23000Y13600D01*
X21450Y12950D02*
X22350D01*
X20200Y19700D02*
X20450Y19450D01*
X21450D01*
X25450Y20850D02*
Y21950D01*
X27850Y28750D02*
X34350D01*
X27850D02*
X27950Y28650D01*
X29450Y5850D02*
Y10450D01*
X24389Y789D02*
X29450Y5850D01*
X14908Y789D02*
X24389D01*
X13237Y2460D02*
X14908Y789D01*
X24038Y1238D02*
X28950Y6150D01*
Y10450D01*
X10697Y2460D02*
X12037Y3800D01*
X12709D01*
X12731Y3778D01*
X25678D01*
X28450Y6550D01*
Y10450D01*
X27950Y6850D02*
Y10450D01*
X26100Y5000D02*
X27950Y6850D01*
X18317Y5000D02*
X26100D01*
X44600Y29200D02*
X46000D01*
X44600Y24200D02*
Y25700D01*
X49000Y29200D02*
X49800D01*
X50100Y28900D01*
Y27800D02*
Y28900D01*
Y27800D02*
X50550Y27350D01*
X51338D01*
X44600Y24200D02*
X48400D01*
X40600D02*
X44600D01*
X45800Y17000D02*
X47780D01*
X44600Y18200D02*
X45800Y17000D01*
X44600Y18200D02*
Y21200D01*
X40600Y18000D02*
Y21200D01*
Y18000D02*
X41600Y17000D01*
X42900D01*
X42900Y17000D01*
X44400D01*
X45100Y16300D01*
Y11600D02*
Y16300D01*
Y11600D02*
X46230Y10470D01*
X48000D01*
X47780Y17000D02*
X49500D01*
X50000Y16500D01*
Y12300D02*
Y16500D01*
X49440Y11740D02*
X50000Y12300D01*
X48000Y11740D02*
X49440D01*
X53530Y7930D02*
X55500Y9900D01*
X48000Y7930D02*
X53530D01*
X48000Y9200D02*
X53400D01*
X54400Y10200D01*
D37*
X9500Y21300D02*
Y22100D01*
Y21300D02*
X10350Y20450D01*
X12200D01*
X48000Y2850D02*
X49750D01*
D38*
X59500Y23700D02*
D03*
Y12300D02*
D03*
D39*
X57400Y14500D02*
D03*
Y17000D02*
D03*
Y19000D02*
D03*
Y21500D02*
D03*
X2000Y16100D02*
D03*
Y18640D02*
D03*
Y26260D02*
D03*
Y23720D02*
D03*
Y21180D02*
D03*
X27850Y33250D02*
D03*
Y28750D02*
D03*
X34350Y33250D02*
D03*
Y28750D02*
D03*
X10697Y2460D02*
D03*
X13237D02*
D03*
Y5000D02*
D03*
X18317D02*
D03*
X15777D02*
D03*
X10697D02*
D03*
X15777Y2460D02*
D03*
X18317D02*
D03*
D40*
X19700Y18700D02*
D03*
X30900Y9000D02*
D03*
X27950Y25300D02*
D03*
X49750Y2850D02*
D03*
X9500Y22100D02*
D03*
X22100Y6200D02*
D03*
X34300Y14700D02*
D03*
X30600Y12000D02*
D03*
X34300Y18900D02*
D03*
X23000Y13600D02*
D03*
X20200Y19700D02*
D03*
X25450Y20850D02*
D03*
X29100Y12100D02*
D03*
X31200Y13400D02*
D03*
X34200Y20000D02*
D03*
X23000Y12500D02*
D03*
X24900Y23400D02*
D03*
X30900Y23300D02*
D03*
X44600Y29200D02*
D03*
Y25700D02*
D03*
X55400Y26400D02*
D03*
M02*
